<svg width="46" height="46" viewBox="0 0 46 46" fill="none" xmlns="http://www.w3.org/2000/svg">
<path d="M6.5992 0.983829C6.55795 0.991329 6.5167 1.00258 6.4792 1.01383C6.03295 1.11508 5.71795 1.51633 5.7292 1.97383V10.6138H14.3692C14.7142 10.6176 15.0367 10.4376 15.2129 10.1376C15.3854 9.83758 15.3854 9.47008 15.2129 9.17008C15.0367 8.87008 14.7142 8.69008 14.3692 8.69383H8.9092C12.5467 5.13508 17.5154 2.93383 23.0092 2.93383C34.1542 2.93383 43.1692 11.9488 43.1692 23.0938C43.1692 34.2388 34.1542 43.2538 23.0092 43.2538C11.8642 43.2538 2.8492 34.2388 2.8492 23.0938C2.8492 19.7601 3.67045 16.6213 5.0992 13.8538L3.3892 12.9838C1.8217 16.0138 0.929199 19.4526 0.929199 23.0938C0.929199 35.2776 10.8254 45.1738 23.0092 45.1738C35.1929 45.1738 45.0892 35.2776 45.0892 23.0938C45.0892 10.9101 35.1929 1.01383 23.0092 1.01383C17.0317 1.01383 11.6242 3.41758 7.6492 7.28383V1.97383C7.66045 1.69633 7.54795 1.43008 7.3492 1.24258C7.1467 1.05133 6.87295 0.957579 6.5992 0.983829ZM23.0092 3.89383C22.4804 3.89383 22.0492 4.32508 22.0492 4.85383C22.0492 5.38258 22.4804 5.81383 23.0092 5.81383C23.5379 5.81383 23.9692 5.38258 23.9692 4.85383C23.9692 4.32508 23.5379 3.89383 23.0092 3.89383ZM32.1292 6.32383C31.6004 6.32383 31.1692 6.75508 31.1692 7.28383C31.1692 7.81258 31.6004 8.24383 32.1292 8.24383C32.6579 8.24383 33.0892 7.81258 33.0892 7.28383C33.0892 6.75508 32.6579 6.32383 32.1292 6.32383ZM38.8192 13.0138C38.2904 13.0138 37.8592 13.4451 37.8592 13.9738C37.8592 14.5026 38.2904 14.9338 38.8192 14.9338C39.3479 14.9338 39.7792 14.5026 39.7792 13.9738C39.7792 13.4451 39.3479 13.0138 38.8192 13.0138ZM16.6492 15.3238C13.9867 15.3238 12.0892 17.0601 12.0892 19.5538V19.5838H14.0692V19.5538C14.0692 18.1101 15.0667 17.1538 16.5592 17.1538C17.9542 17.1538 19.0192 18.0763 19.0192 19.3138C19.0192 20.3076 18.5804 21.0276 16.7692 22.9138L12.2092 27.6538V29.1838H21.3292V27.2938H15.1192V27.1438L18.1492 24.0838C20.4179 21.7888 21.0892 20.6263 21.0892 19.1938C21.0892 16.9626 19.2179 15.3238 16.6492 15.3238ZM29.3392 15.6538C26.9279 19.2651 24.9104 22.4113 23.6992 24.6238V26.5738H30.2992V29.1838H32.3092V26.5738H34.1992V24.6838H32.3092V15.6538H29.3392ZM30.2092 17.5138H30.3292V24.7438H25.7092V24.5938C27.3029 21.8263 28.8704 19.4526 30.2092 17.5138ZM4.7692 22.1338C4.24045 22.1338 3.8092 22.5651 3.8092 23.0938C3.8092 23.6226 4.24045 24.0538 4.7692 24.0538C5.29795 24.0538 5.7292 23.6226 5.7292 23.0938C5.7292 22.5651 5.29795 22.1338 4.7692 22.1338ZM41.2492 22.1338C40.7204 22.1338 40.2892 22.5651 40.2892 23.0938C40.2892 23.6226 40.7204 24.0538 41.2492 24.0538C41.7779 24.0538 42.2092 23.6226 42.2092 23.0938C42.2092 22.5651 41.7779 22.1338 41.2492 22.1338ZM7.1992 31.2538C6.67045 31.2538 6.2392 31.6851 6.2392 32.2138C6.2392 32.7426 6.67045 33.1738 7.1992 33.1738C7.72795 33.1738 8.1592 32.7426 8.1592 32.2138C8.1592 31.6851 7.72795 31.2538 7.1992 31.2538ZM38.8192 31.2538C38.2904 31.2538 37.8592 31.6851 37.8592 32.2138C37.8592 32.7426 38.2904 33.1738 38.8192 33.1738C39.3479 33.1738 39.7792 32.7426 39.7792 32.2138C39.7792 31.6851 39.3479 31.2538 38.8192 31.2538ZM13.8892 37.9438C13.3604 37.9438 12.9292 38.3751 12.9292 38.9038C12.9292 39.4326 13.3604 39.8638 13.8892 39.8638C14.4179 39.8638 14.8492 39.4326 14.8492 38.9038C14.8492 38.3751 14.4179 37.9438 13.8892 37.9438ZM32.1292 37.9438C31.6004 37.9438 31.1692 38.3751 31.1692 38.9038C31.1692 39.4326 31.6004 39.8638 32.1292 39.8638C32.6579 39.8638 33.0892 39.4326 33.0892 38.9038C33.0892 38.3751 32.6579 37.9438 32.1292 37.9438ZM23.0092 40.3738C22.4804 40.3738 22.0492 40.8051 22.0492 41.3338C22.0492 41.8626 22.4804 42.2938 23.0092 42.2938C23.5379 42.2938 23.9692 41.8626 23.9692 41.3338C23.9692 40.8051 23.5379 40.3738 23.0092 40.3738Z" fill="#FFE1B5"/>
</svg>
