<svg width="49" height="49" viewBox="0 0 49 49" fill="none" xmlns="http://www.w3.org/2000/svg">
<path d="M47.9422 23.696C47.9392 23.6878 47.9392 23.6796 47.9354 23.6714C47.9354 23.6705 47.9354 23.6697 47.9345 23.6685C47.8895 23.5653 47.8231 23.4769 47.7463 23.3988C47.7378 23.3906 47.7356 23.3787 47.7262 23.3705L41.9655 17.8455C41.8772 17.7608 41.7705 17.6934 41.6535 17.6466C41.5373 17.5989 41.4126 17.5742 41.2878 17.5742H6.72367C6.59894 17.5742 6.47421 17.5989 6.35676 17.6449C6.23975 17.6918 6.13302 17.7592 6.04472 17.8439L0.28402 23.3688C0.275448 23.377 0.272449 23.389 0.263877 23.3972C0.187153 23.4765 0.11986 23.5637 0.0757162 23.6668C0.0757162 23.6677 0.0757162 23.6685 0.074859 23.6697C0.0710014 23.6779 0.0718586 23.6862 0.068001 23.6944C0.0307112 23.7893 0.0131359 23.8859 0.00927792 23.9834C0.00842062 24.0154 0.0122784 24.0459 0.0139928 24.0783C0.019565 24.1564 0.0341388 24.2313 0.0602858 24.3048C0.0710013 24.3361 0.0795734 24.3657 0.0937184 24.3961C0.140867 24.4956 0.19916 24.5893 0.282746 24.6695L23.3255 46.7692C23.335 46.7794 23.3504 46.7831 23.3611 46.7922C23.4198 46.8436 23.4828 46.8888 23.5523 46.9249C23.5609 46.9295 23.5669 46.9377 23.5763 46.9426C23.5887 46.948 23.6011 46.95 23.6136 46.9554C23.6221 46.9591 23.6299 46.9644 23.6384 46.9681C23.653 46.9735 23.668 46.9735 23.6826 46.9792C23.6856 46.98 23.6881 46.9809 23.6911 46.9821C23.716 46.9903 23.74 47.0014 23.7649 47.008C23.8446 47.0285 23.9252 47.0405 24.0049 47.0405H24.0058H24.0066C24.0863 47.0405 24.1669 47.0285 24.2466 47.0092C24.2724 47.0026 24.2955 46.9915 24.3204 46.9833C24.3234 46.9825 24.3259 46.9817 24.3289 46.9804C24.3435 46.9759 24.3585 46.9751 24.3731 46.9693C24.3817 46.9656 24.3894 46.9603 24.3979 46.9566C24.4104 46.9513 24.4228 46.9492 24.4352 46.9439C24.4447 46.9393 24.4498 46.9311 24.4592 46.9262C24.5282 46.8904 24.5908 46.8452 24.6504 46.7934C24.6611 46.7844 24.6753 46.7794 24.686 46.7704L47.7288 24.6707C47.8124 24.5905 47.8711 24.4968 47.9178 24.3973C47.9324 24.3669 47.9409 24.3373 47.9512 24.3061C47.977 24.2325 47.9915 24.1568 47.9975 24.0796C47.9992 24.0475 48.0044 24.0171 48.0022 23.9846C47.998 23.8872 47.9799 23.7898 47.9422 23.696ZM32.0844 19.4158H38.9702L35.5275 22.7181L32.0844 19.4158ZM33.21 23.0991H26.3241L29.7668 19.7969L33.21 23.0991ZM24.0061 22.7181L20.563 19.4158H27.4488L24.0061 22.7181ZM21.6886 23.0991H14.8027L18.2454 19.7969L21.6886 23.0991ZM12.4847 22.7181L9.04161 19.4158H15.9275L12.4847 22.7181ZM6.72405 19.7969L10.1672 23.0991H3.28135L6.72405 19.7969ZM23.046 24.9408V42.2185L14.0381 24.9408H23.046ZM24.9663 24.9408H33.9742L24.9663 42.2185V24.9408ZM41.2882 19.7969L44.7314 23.0991H37.8455L41.2882 19.7969ZM11.8911 24.9408L20.5013 41.4566L3.28069 24.9408H11.8911ZM27.5097 41.4566L36.12 24.9408H44.7302L27.5097 41.4566Z" fill="#FFE1B5"/>
<path d="M6.72415 5.60361C7.25393 5.60361 7.68427 5.19089 7.68427 4.68279V1.92033C7.68427 1.41224 7.25393 0.999512 6.72415 0.999512C6.19438 0.999512 5.76404 1.41224 5.76404 1.92033V4.68279C5.76404 5.19089 6.19438 5.60361 6.72415 5.60361Z" fill="#FFE1B5"/>
<path d="M6.72415 7.44531C6.19438 7.44531 5.76404 7.85804 5.76404 8.36613V11.1286C5.76404 11.6367 6.19438 12.0494 6.72415 12.0494C7.25393 12.0494 7.68427 11.6367 7.68427 11.1286V8.36613C7.68427 7.85804 7.25393 7.44531 6.72415 7.44531Z" fill="#FFE1B5"/>
<path d="M8.64444 7.44516H11.5248C12.0546 7.44516 12.4849 7.03243 12.4849 6.52434C12.4849 6.01624 12.0546 5.60352 11.5248 5.60352H8.64444C8.11467 5.60352 7.68433 6.01624 7.68433 6.52434C7.68433 7.03243 8.11467 7.44516 8.64444 7.44516Z" fill="#FFE1B5"/>
<path d="M1.92362 7.44516H4.80397C5.33374 7.44516 5.76408 7.03243 5.76408 6.52434C5.76408 6.01624 5.33374 5.60352 4.80397 5.60352H1.92362C1.39384 5.60352 0.963501 6.01624 0.963501 6.52434C0.963501 7.03243 1.39384 7.44516 1.92362 7.44516Z" fill="#FFE1B5"/>
<path d="M42.2484 10.2076C42.7782 10.2076 43.2086 9.79489 43.2086 9.2868V6.52434C43.2086 6.01624 42.7782 5.60352 42.2484 5.60352C41.7187 5.60352 41.2883 6.01624 41.2883 6.52434V9.2868C41.2883 9.79489 41.7187 10.2076 42.2484 10.2076Z" fill="#FFE1B5"/>
<path d="M42.2484 12.0493C41.7187 12.0493 41.2883 12.462 41.2883 12.9701V15.7326C41.2883 16.2407 41.7187 16.6534 42.2484 16.6534C42.7782 16.6534 43.2086 16.2407 43.2086 15.7326V12.9701C43.2086 12.462 42.7782 12.0493 42.2484 12.0493Z" fill="#FFE1B5"/>
<path d="M47.049 10.2075H44.1686C43.6388 10.2075 43.2085 10.6202 43.2085 11.1283C43.2085 11.6364 43.6388 12.0492 44.1686 12.0492H47.049C47.5787 12.0492 48.0091 11.6364 48.0091 11.1283C48.0091 10.6202 47.5787 10.2075 47.049 10.2075Z" fill="#FFE1B5"/>
<path d="M37.4479 12.0492H40.3283C40.858 12.0492 41.2884 11.6364 41.2884 11.1283C41.2884 10.6202 40.858 10.2075 40.3283 10.2075H37.4479C36.9181 10.2075 36.4878 10.6202 36.4878 11.1283C36.4878 11.6364 36.9181 12.0492 37.4479 12.0492Z" fill="#FFE1B5"/>
</svg>
