<svg width="24" height="30" viewBox="0 0 24 30" fill="none" xmlns="http://www.w3.org/2000/svg">
<path d="M14.392 0.28125H3.60291C2.64978 0.28125 1.7357 0.663169 1.06176 1.34299C0.387785 2.02281 0.00915527 2.94483 0.00915527 3.90625V25.6562C0.00915527 26.6176 0.387785 27.5397 1.06176 28.2195C1.7357 28.8994 2.64978 29.2812 3.60291 29.2812H19.4154C20.3685 29.2812 21.2826 28.8994 21.9565 28.2195C22.6306 27.5397 23.0092 26.6176 23.0092 25.6562V8.98125L14.392 0.28125ZM20.2402 8.25625H17.2592C16.6875 8.25566 16.1394 8.02632 15.7352 7.61854C15.3309 7.21078 15.1035 6.65791 15.1029 6.08125V3.06116L20.2402 8.25625ZM21.5717 25.6562C21.571 26.233 21.3438 26.7857 20.9396 27.1935C20.5353 27.6012 19.9871 27.8306 19.4154 27.8313H3.60291C3.03122 27.8306 2.48312 27.6012 2.07888 27.1935C1.67463 26.7857 1.44725 26.233 1.44666 25.6562V3.90625C1.44725 3.32959 1.67463 2.77672 2.07888 2.36896C2.48312 1.96119 3.03122 1.73185 3.60291 1.73125H13.6654V6.08125C13.6654 7.04267 14.0441 7.96469 14.718 8.64452C15.392 9.32433 16.3061 9.70625 17.2592 9.70625H21.5717V25.6562Z" fill="#FFE1B5"/>
<path d="M16.5376 20.8751C16.5196 20.6927 16.3444 19.7837 14.8132 19.8244C13.7317 19.8516 13.2375 19.9111 13.0438 19.9428C12.8124 19.6913 12.0117 18.7964 11.6641 18.0697C11.7607 17.7655 12.1369 16.5206 12.1173 15.6783C12.0999 14.9222 11.9606 14.0562 11.0335 14.0562H11.0178C10.7472 14.059 10.5343 14.1462 10.3838 14.315C10.1441 14.5852 10.0739 15.0304 10.1497 15.8029C10.2221 16.5393 10.5428 17.3696 10.6348 17.6001C10.5602 17.8335 10.2766 18.7058 9.92117 19.5639C9.5876 20.371 9.33717 20.8751 9.25238 21.0365C8.95869 21.143 7.78399 21.5911 7.21742 22.1359C6.69014 22.643 6.21117 23.2456 6.6559 23.868C6.80414 24.0754 7.08097 24.2011 7.39711 24.2039H7.40778C7.97716 24.2039 8.58191 23.8267 9.06877 23.1667C9.80322 22.1716 10.198 21.4936 10.3142 21.2858C10.595 21.207 11.6349 20.9136 11.9881 20.8258C12.2902 20.7505 12.644 20.6859 12.8046 20.6559C13.082 20.925 14.1736 21.902 15.2629 21.8652C15.7683 21.8459 16.1339 21.7117 16.3478 21.4653C16.418 21.385 16.4713 21.2911 16.5044 21.1893C16.5375 21.0876 16.5498 20.9801 16.5404 20.8734L16.5376 20.8751ZM7.41059 23.4416C7.3748 23.4545 7.33662 23.4591 7.29881 23.4552C7.261 23.4512 7.22454 23.4389 7.19215 23.4189C7.12982 23.3803 7.1242 23.3504 7.136 23.301C7.21742 22.9345 8.10294 22.3172 8.66054 22.0215C8.33765 22.5716 7.82217 23.3231 7.41059 23.4416ZM10.9847 14.6877C11.0464 14.6877 11.1919 14.6877 11.1981 15.2405C11.202 15.6109 11.0594 16.2125 10.9476 16.6231C10.8236 16.2428 10.7568 15.8458 10.7494 15.4455C10.7488 14.8893 10.892 14.6877 10.9836 14.6877H10.9847ZM11.4777 20.2951C11.1739 20.3722 10.9313 20.4498 10.7477 20.516L10.8769 20.217C11.0633 19.7859 11.2497 19.2671 11.3676 18.9255C11.6325 19.3432 11.9238 19.7431 12.2397 20.1229C12.0639 20.1563 11.8141 20.2107 11.4771 20.2957L11.4777 20.2951ZM15.3337 21.0626C15.0103 21.2008 14.2887 20.9912 13.6778 20.5166C14.3173 20.4333 15.1456 20.4118 15.4151 20.6378C15.4394 20.6561 15.459 20.68 15.4723 20.7075C15.4856 20.735 15.4921 20.7653 15.4915 20.7958C15.4915 20.934 15.4404 21.0162 15.3337 21.0626Z" fill="#FFE1B5"/>
</svg>
