<svg width="18" height="19" viewBox="0 0 18 19" fill="none" xmlns="http://www.w3.org/2000/svg">
<path fill-rule="evenodd" clip-rule="evenodd" d="M14.9539 3.18836C14.1454 2.37932 13.1846 1.73822 12.1273 1.30191C11.0698 0.865711 9.93649 0.642834 8.79262 0.646405C3.99217 0.646405 0.0842613 4.53473 0.0823032 9.31491C0.0802299 10.837 0.48141 12.3326 1.24518 13.6492L0.00927734 18.1396L4.62671 16.9342C5.90477 17.6267 7.33556 17.9891 8.78916 17.9885H8.79262C13.5927 17.9885 17.5003 14.0998 17.5026 9.31997C17.5055 8.18002 17.2817 7.05088 16.8441 5.99823C16.4066 4.94547 15.764 3.99038 14.9539 3.18836ZM12.7634 11.1295C12.5459 11.0209 11.4749 10.4969 11.2765 10.4246C11.0781 10.3524 10.9317 10.3161 10.7868 10.5332C10.642 10.7503 10.2246 11.236 10.0976 11.3824C9.9707 11.5289 9.84377 11.545 9.62631 11.4363C9.40884 11.3278 8.70715 11.0994 7.87577 10.3613C7.22879 9.78704 6.79225 9.07786 6.66532 8.86121C6.53839 8.64443 6.65173 8.52695 6.76057 8.41914C6.85859 8.32192 6.97815 8.16608 7.08711 8.03961C7.19596 7.91314 7.23236 7.82249 7.30458 7.67805C7.3768 7.5335 7.34086 7.40703 7.28661 7.29887C7.23236 7.19072 6.79697 6.12436 6.61579 5.69047C6.43887 5.26798 6.25964 5.32545 6.12615 5.31877C5.99922 5.31255 5.85282 5.31094 5.70873 5.31094C5.5985 5.31382 5.49011 5.33939 5.39036 5.38604C5.2905 5.43269 5.20135 5.49938 5.12844 5.58197C4.92894 5.79908 4.36662 6.32385 4.36662 7.38906C4.36662 8.45427 5.14756 9.48515 5.25537 9.62959C5.36307 9.77414 6.78994 11.9619 8.97311 12.9002C9.37844 13.0739 9.79263 13.226 10.214 13.3563C10.7353 13.5211 11.2097 13.4981 11.5845 13.4422C12.0027 13.3801 12.8731 12.9182 13.0539 12.4122C13.2347 11.906 13.2351 11.4726 13.1808 11.3824C13.1266 11.2922 12.9813 11.2376 12.7634 11.1295Z" fill="#FFE1B5"/>
</svg>
