<svg width="20" height="19" viewBox="0 0 20 19" fill="none" xmlns="http://www.w3.org/2000/svg">
<path fill-rule="evenodd" clip-rule="evenodd" d="M6.28931 0.55416C7.24926 0.51036 7.55571 0.5 9.99998 0.5C12.4443 0.5 12.7507 0.51036 13.7107 0.55416C14.6686 0.597888 15.3228 0.750007 15.8953 0.972506C16.4872 1.20251 16.9891 1.51025 17.4894 2.01058C17.9898 2.51092 18.2975 3.01283 18.5275 3.60466C18.75 4.17716 18.9021 4.83137 18.9458 5.78935C18.9896 6.74926 19 7.05575 19 9.50002C19 11.9443 18.9896 12.2508 18.9458 13.2107C18.9021 14.1687 18.75 14.8229 18.5275 15.3954C18.2975 15.9872 17.9898 16.4891 17.4894 16.9895C16.9891 17.4898 16.4872 17.7975 15.8953 18.0275C15.3228 18.25 14.6686 18.4021 13.7107 18.4459C12.7507 18.4897 12.4443 18.5 9.99998 18.5C7.55571 18.5 7.24926 18.4897 6.28931 18.4459C5.33133 18.4021 4.67712 18.25 4.10462 18.0275C3.51279 17.7975 3.01088 17.4898 2.51055 16.9895C2.01021 16.4891 1.70247 15.9872 1.47247 15.3954C1.24997 14.8229 1.09785 14.1687 1.05412 13.2107C1.01032 12.2508 1 11.9443 1 9.50002C1 7.05575 1.01032 6.74926 1.05412 5.78935C1.09785 4.83137 1.24997 4.17716 1.47247 3.60466C1.70247 3.01283 2.01021 2.51092 2.51055 2.01058C3.01088 1.51025 3.51279 1.20251 4.10462 0.972506C4.67712 0.750007 5.33133 0.597888 6.28931 0.55416ZM14.8042 5.77581C15.4007 5.77581 15.8842 5.29226 15.8842 4.69579C15.8842 4.09931 15.4007 3.6158 14.8042 3.6158C14.2077 3.6158 13.7242 4.09931 13.7242 4.69579C13.7242 5.29226 14.2077 5.77581 14.8042 5.77581ZM13.0256 9.50061C13.0256 11.1716 11.671 12.5262 10 12.5262C8.329 12.5262 6.97439 11.1716 6.97439 9.50061C6.97439 7.82961 8.329 6.475 10 6.475C11.671 6.475 13.0256 7.82961 13.0256 9.50061ZM14.6256 9.50061C14.6256 12.0553 12.5547 14.1262 10 14.1262C7.44535 14.1262 5.37439 12.0553 5.37439 9.50061C5.37439 6.94596 7.44535 4.875 10 4.875C12.5547 4.875 14.6256 6.94596 14.6256 9.50061Z" fill="#FFE1B5"/>
</svg>
