<svg width="18" height="18" viewBox="0 0 18 18" fill="none" xmlns="http://www.w3.org/2000/svg">
<path d="M16.3543 9.13016C16.2322 7.15893 15.4835 5.48571 14.1082 4.11048C12.733 2.73526 11.063 1.98978 9.09819 1.87406V0.736084C10.231 0.782388 11.296 1.03249 12.2932 1.48638C13.2904 1.94029 14.1661 2.54594 14.9202 3.30332C15.6744 4.06068 16.2784 4.93795 16.7323 5.93514C17.1862 6.93231 17.4395 7.99732 17.4923 9.13016H16.3543ZM12.1746 9.13016C12.0524 8.32649 11.7101 7.64274 11.1475 7.07891C10.585 6.51505 9.90186 6.17847 9.09819 6.06916V4.93122C10.2169 5.04051 11.1684 5.48638 11.9528 6.26883C12.7372 7.05126 13.1904 8.00504 13.3126 9.13016H12.1746ZM16.3967 17.9949C14.5309 17.9949 12.6536 17.5159 10.7647 16.5579C8.87574 15.6 7.1707 14.362 5.64952 12.844C4.12837 11.3261 2.8888 9.62426 1.93083 7.73856C0.972874 5.85285 0.493896 3.97711 0.493896 2.11133C0.493896 1.79446 0.599518 1.5304 0.810761 1.31916C1.022 1.1079 1.28606 1.00227 1.60293 1.00227H4.46715C4.7229 1.00227 4.94597 1.08489 5.13635 1.25013C5.32672 1.41537 5.45019 1.63815 5.50678 1.91846L6.10663 4.61488C6.1465 4.86176 6.14071 5.08614 6.08928 5.28802C6.03784 5.4899 5.93937 5.65718 5.79388 5.78983L3.42947 8.10214C4.3913 9.70174 5.45793 11.0815 6.62935 12.2413C7.80077 13.4012 9.15092 14.3984 10.6798 15.2329L12.9461 12.8817C13.1133 12.6978 13.3007 12.5699 13.5084 12.4979C13.7161 12.4258 13.9317 12.4149 14.1555 12.4651L16.5896 13.0013C16.8648 13.0577 17.0863 13.1882 17.2541 13.3927C17.4219 13.5972 17.5058 13.8422 17.5058 14.1277V16.8858C17.5058 17.2027 17.4001 17.4667 17.1889 17.678C16.9777 17.8892 16.7136 17.9949 16.3967 17.9949Z" fill="#FFE1B5"/>
</svg>
