<svg width="20" height="21" viewBox="0 0 20 21" fill="none" xmlns="http://www.w3.org/2000/svg">
<path d="M18.564 10.4755C18.4219 8.18254 17.551 6.23623 15.9513 4.63656C14.3516 3.03688 12.4091 2.16974 10.1236 2.03513V0.711426C11.4413 0.765287 12.6802 1.05621 13.8401 1.58418C15 2.11217 16.0186 2.81667 16.8958 3.69765C17.7731 4.57862 18.4757 5.59908 19.0037 6.75902C19.5317 7.91894 19.8263 9.15776 19.8877 10.4755H18.564ZM13.7021 10.4755C13.56 9.54066 13.1618 8.74532 12.5074 8.08946C11.853 7.43357 11.0584 7.04206 10.1236 6.91491V5.59124C11.4249 5.71837 12.5317 6.23701 13.4441 7.14717C14.3565 8.0573 14.8837 9.16675 15.0258 10.4755H13.7021ZM18.6133 20.787C16.443 20.787 14.2593 20.2299 12.062 19.1155C9.86483 18.0012 7.88151 16.5612 6.11207 14.7955C4.34264 13.0298 2.90077 11.0502 1.78644 8.85677C0.672142 6.6633 0.11499 4.48142 0.11499 2.31113C0.11499 1.94254 0.23785 1.63539 0.48357 1.38967C0.729289 1.14393 1.03644 1.02106 1.40503 1.02106H4.73671C5.03421 1.02106 5.29369 1.11716 5.51514 1.30937C5.73657 1.50158 5.8802 1.76072 5.94602 2.08678L6.64377 5.22328C6.69015 5.51045 6.68342 5.77145 6.62359 6.00628C6.56376 6.24111 6.44922 6.43569 6.27998 6.59L3.52968 9.27969C4.64849 11.1404 5.8892 12.7453 7.25181 14.0944C8.61442 15.4436 10.1849 16.6035 11.9633 17.5742L14.5996 14.8393C14.794 14.6254 15.012 14.4766 15.2536 14.3928C15.4951 14.3091 15.746 14.2964 16.0063 14.3547L18.8377 14.9784C19.1578 15.044 19.4155 15.1958 19.6106 15.4337C19.8058 15.6716 19.9033 15.9566 19.9033 16.2887V19.4969C19.9033 19.8655 19.7805 20.1727 19.5348 20.4184C19.289 20.6641 18.9819 20.787 18.6133 20.787ZM2.85663 8.07939L5.26399 5.74381C5.29391 5.71389 5.31448 5.67275 5.3257 5.62041C5.33692 5.56804 5.33879 5.51943 5.3313 5.47458L4.69413 2.52425C4.68664 2.46442 4.66234 2.41955 4.62121 2.38965C4.58007 2.35972 4.52958 2.34476 4.46975 2.34476H1.59572C1.55085 2.34476 1.51345 2.35972 1.48355 2.38965C1.45362 2.41955 1.43866 2.45694 1.43866 2.50182C1.42371 3.26764 1.53851 4.11011 1.78306 5.02923C2.02761 5.94835 2.38547 6.96507 2.85663 8.07939ZM13.204 18.1957C14.0013 18.5876 14.874 18.8927 15.8223 19.1111C16.7706 19.3295 17.6374 19.4506 18.4226 19.4745C18.4675 19.4745 18.5049 19.4596 18.5348 19.4297C18.5647 19.3998 18.5797 19.3624 18.5797 19.3175V16.4547C18.5797 16.3948 18.5647 16.3443 18.5348 16.3032C18.5049 16.2621 18.46 16.2378 18.4002 16.2303L15.755 15.6851C15.7101 15.6776 15.6709 15.6795 15.6372 15.6907C15.6035 15.7019 15.568 15.7225 15.5306 15.7524L13.204 18.1957Z" fill="#2D2D2D"/>
</svg>
