<svg width="49" height="49" viewBox="0 0 49 49" fill="none" xmlns="http://www.w3.org/2000/svg">
<path d="M45.1292 8.48567C43.5413 8.48567 42.2492 9.75887 42.2492 11.3235C42.2492 12.2475 42.706 13.0613 43.402 13.5795L35.5292 21.3376L25.7363 11.6875C26.4323 11.1694 26.8892 10.3556 26.8892 9.43162C26.8892 7.86695 25.597 6.59375 24.0092 6.59375C22.4213 6.59375 21.1292 7.86695 21.1292 9.43162C21.1292 10.3556 21.586 11.1694 22.282 11.6875L12.4892 21.3376L4.61628 13.5799C5.31228 13.0613 5.76916 12.2475 5.76916 11.3235C5.76916 9.75887 4.47705 8.48567 2.88916 8.48567C1.30126 8.48567 0.00915527 9.75887 0.00915527 11.3235C0.00915527 12.6129 0.891588 13.6914 2.08769 14.0356L6.54999 34.2596C5.52742 34.6958 4.80915 35.6984 4.80915 36.864V40.6478C4.80915 41.1698 5.23944 41.5938 5.76916 41.5938H42.2492C42.7789 41.5938 43.2092 41.1698 43.2092 40.6478V36.864C43.2092 35.6976 42.4909 34.6958 41.4688 34.2596L45.9311 14.0356C47.1267 13.6914 48.0092 12.6129 48.0092 11.3235C48.0092 9.75887 46.717 8.48567 45.1292 8.48567ZM24.0092 8.48567C24.538 8.48567 24.9692 8.9105 24.9692 9.43162C24.9692 9.95274 24.538 10.3776 24.0092 10.3776C23.4803 10.3776 23.0492 9.95274 23.0492 9.43162C23.0492 8.9105 23.4803 8.48567 24.0092 8.48567ZM2.88916 10.3776C3.41801 10.3776 3.84916 10.8024 3.84916 11.3235C3.84916 11.8447 3.41801 12.2695 2.88916 12.2695C2.3603 12.2695 1.92916 11.8447 1.92916 11.3235C1.92916 10.8024 2.3603 10.3776 2.88916 10.3776ZM41.2892 39.7023H6.72916V36.8644C6.72916 36.3433 7.1603 35.9184 7.68916 35.9184H40.3292C40.858 35.9184 41.2892 36.3433 41.2892 36.8644V39.7023ZM39.5556 34.0265H8.46253L4.52181 16.1625L11.8101 23.3442C12.1856 23.7142 12.7924 23.7142 13.1674 23.3442L24.0089 12.6613L34.85 23.3438C35.2255 23.7137 35.8323 23.7137 36.2073 23.3438L43.4956 16.1621L39.5556 34.0265ZM45.1292 12.2695C44.6003 12.2695 44.1692 11.8447 44.1692 11.3235C44.1692 10.8024 44.6003 10.3776 45.1292 10.3776C45.658 10.3776 46.0892 10.8024 46.0892 11.3235C46.0892 11.8447 45.658 12.2695 45.1292 12.2695Z" fill="#FFE1B5"/>
<path d="M24.6883 20.1139C24.3129 19.7439 23.706 19.7439 23.331 20.1139L18.531 24.8437C18.1556 25.2136 18.1556 25.8116 18.531 26.1811L23.331 30.9109C23.5179 31.0954 23.7639 31.1883 24.0095 31.1883C24.255 31.1883 24.501 31.0954 24.6883 30.9113L29.4883 26.1815C29.8637 25.8116 29.8637 25.2136 29.4883 24.8441L24.6883 20.1139ZM24.0094 28.9049L20.5667 25.5125L24.0094 22.1202L27.4522 25.5125L24.0094 28.9049Z" fill="#FFE1B5"/>
<path d="M10.8478 37.139C10.7613 37.2336 10.6944 37.3375 10.6464 37.4511C10.598 37.5647 10.5693 37.6876 10.5693 37.8105C10.5693 38.0563 10.6747 38.3025 10.8479 38.4819C11.03 38.6526 11.2799 38.7564 11.5293 38.7564C11.7787 38.7564 12.0286 38.6526 12.2107 38.4819C12.3838 38.3025 12.4893 38.0563 12.4893 37.8105C12.4893 37.5647 12.3838 37.3185 12.2107 37.139C11.846 36.7889 11.2027 36.7889 10.8478 37.139Z" fill="#FFE1B5"/>
<path d="M19.8521 36.8643C19.3147 36.8643 18.8921 37.2899 18.8921 37.8102C18.8921 38.3305 19.3147 38.7562 19.8521 38.7562C20.3801 38.7562 20.8121 38.3305 20.8121 37.8102C20.8121 37.2899 20.3801 36.8643 19.8521 36.8643Z" fill="#FFE1B5"/>
<path d="M28.1662 36.8643C27.6382 36.8643 27.2062 37.2899 27.2062 37.8102C27.2062 38.3305 27.6382 38.7562 28.1662 38.7562C28.7037 38.7562 29.1262 38.3305 29.1262 37.8102C29.1262 37.2899 28.7041 36.8643 28.1662 36.8643Z" fill="#FFE1B5"/>
<path d="M37.1705 37.1388C37.0745 37.0535 36.9691 36.9876 36.8538 36.9403C36.4985 36.7891 36.0763 36.874 35.8072 37.1388C35.7206 37.2334 35.6538 37.3373 35.6058 37.4509C35.5578 37.5645 35.5291 37.6873 35.5291 37.8102C35.5291 38.056 35.6345 38.3022 35.8076 38.4817C35.9898 38.6523 36.2396 38.7562 36.4891 38.7562C36.6138 38.7562 36.7385 38.7279 36.8538 38.6806C36.9691 38.6333 37.0745 38.567 37.1705 38.4821C37.3436 38.3022 37.4491 38.056 37.4491 37.8102C37.4491 37.6874 37.4203 37.5645 37.3723 37.4509C37.3243 37.3373 37.257 37.2334 37.1705 37.1388Z" fill="#FFE1B5"/>
</svg>
