<svg width="142" height="60" viewBox="0 0 142 60" fill="none" xmlns="http://www.w3.org/2000/svg">
<path d="M66.5455 43.455C66.5455 43.5096 66.5273 43.6005 66.5091 43.7278C66.4909 43.855 66.4727 44.0005 66.4727 44.1641C66.4546 44.1641 66.4182 44.1641 66.4 44.1641C66.3818 44.1641 66.3455 44.1641 66.3273 44.1641C65.6727 44.1641 65.0909 44.0914 64.5636 43.9278C64.0546 43.7641 63.6182 43.5278 63.2909 43.2187C63.0546 43.0005 62.8546 42.7278 62.7273 42.4369C62.5818 42.1278 62.5091 41.7823 62.5091 41.4005C62.5091 41.0369 62.5818 40.7278 62.7091 40.4369C62.8545 40.1459 63.0364 39.8914 63.2545 39.6732C63.5818 39.3641 64 39.1278 64.5273 38.946C65.0545 38.7641 65.6182 38.6914 66.2 38.6914H66.2909H66.3818C66.3818 38.7641 66.4 38.855 66.4 38.9823C66.4182 39.1096 66.4182 39.255 66.4364 39.4005C66.4182 39.4005 66.3818 39.4005 66.3636 39.4005C66.3455 39.4005 66.3091 39.4005 66.2909 39.4005C65.9818 39.4005 65.6546 39.4369 65.3091 39.5096C64.9636 39.5823 64.6546 39.6732 64.4 39.8187C64.0727 40.0005 63.8 40.2369 63.6182 40.5096C63.4364 40.7823 63.3455 41.0914 63.3455 41.4369C63.3455 41.7823 63.4364 42.0914 63.6 42.3641C63.7636 42.6369 64.0182 42.8732 64.3636 43.055C64.6364 43.2005 64.9636 43.3096 65.3091 43.3823C65.6546 43.455 66 43.4914 66.3273 43.4914H66.4182C66.4545 43.455 66.5091 43.455 66.5455 43.455Z" fill="#FFE1B5"/>
<path d="M71.5091 42.0361C71.5091 42.3452 71.4545 42.6543 71.3454 42.927C71.2363 43.2179 71.0727 43.4543 70.8545 43.6543C70.6727 43.8179 70.4727 43.9634 70.2363 44.0361C70.0182 44.127 69.7636 44.1634 69.4909 44.1634C69.2182 44.1634 68.9818 44.127 68.7454 44.0361C68.5091 43.9452 68.3091 43.8179 68.1273 43.6543C67.9273 43.4543 67.7636 43.2179 67.6363 42.927C67.5273 42.6361 67.4545 42.327 67.4545 42.0179C67.4545 41.7088 67.5091 41.4179 67.6 41.1634C67.6909 40.9088 67.8545 40.6724 68.0545 40.4724C68.2363 40.2906 68.4545 40.1452 68.6909 40.0361C68.9273 39.927 69.2 39.8906 69.4727 39.8906C69.7636 39.8906 70.0182 39.9452 70.2545 40.0361C70.4909 40.127 70.6909 40.2724 70.8727 40.4543C71.0909 40.6724 71.2363 40.9088 71.3454 41.1634C71.4545 41.4361 71.5091 41.727 71.5091 42.0361ZM70.7091 42.0724C70.7091 41.8361 70.6727 41.5997 70.6 41.3815C70.5273 41.1634 70.4 40.9634 70.2363 40.8179C70.1454 40.727 70.0182 40.6543 69.8909 40.5997C69.7636 40.5452 69.6182 40.527 69.4727 40.527C69.3091 40.527 69.1454 40.5634 69.0182 40.6179C68.8909 40.6724 68.7636 40.7634 68.6545 40.8724C68.5273 41.0179 68.4182 41.1815 68.3454 41.3997C68.2727 41.6179 68.2363 41.8361 68.2363 42.0543C68.2363 42.3088 68.2727 42.5452 68.3454 42.7634C68.4182 42.9815 68.5454 43.1634 68.7273 43.327C68.8182 43.4179 68.9273 43.4906 69.0545 43.527C69.1818 43.5634 69.3091 43.5997 69.4545 43.5997C69.6182 43.5997 69.7636 43.5634 69.8909 43.5088C70.0363 43.4543 70.1454 43.3815 70.2545 43.2724C70.4 43.127 70.5091 42.9452 70.5818 42.7452C70.6727 42.5088 70.7091 42.2906 70.7091 42.0724Z" fill="#FFE1B5"/>
<path d="M76.3818 44.0914H75.6C75.6 44.0186 75.6 43.7823 75.6181 43.3823C75.6181 42.9823 75.6181 42.7277 75.6181 42.6005C75.6181 42.455 75.6181 42.255 75.6181 42.0005C75.6181 41.7277 75.6181 41.5459 75.6181 41.4186C75.6181 41.1277 75.5636 40.9096 75.4545 40.7823C75.3454 40.655 75.1818 40.5823 74.9272 40.5823C74.7636 40.5823 74.5818 40.6186 74.3454 40.7096C74.1272 40.8005 73.8909 40.9096 73.6727 41.055V41.5277V42.3096C73.6727 42.6186 73.6727 42.9823 73.6909 43.4186C73.6909 43.855 73.7091 44.0732 73.7091 44.1096H72.9272C72.9272 44.0732 72.9272 43.9096 72.9272 43.6005C72.9272 43.2914 72.9272 42.8368 72.9272 42.2186C72.9272 41.9277 72.9272 41.5823 72.9272 41.2186C72.9272 40.8368 72.9272 40.455 72.9091 40.0368H73.6909V40.4732C74.0363 40.2732 74.3454 40.1277 74.6 40.055C74.8545 39.9641 75.0727 39.9277 75.2545 39.9277C75.6 39.9277 75.8909 40.0368 76.0909 40.255C76.3091 40.4732 76.4 40.7641 76.4 41.1459V42.0005V42.5823C76.4 42.8368 76.4 43.1277 76.4181 43.4914C76.3818 43.855 76.3818 44.055 76.3818 44.0914Z" fill="#FFE1B5"/>
<path d="M80.8727 43.4545L80.8 44.1091C80.7818 44.1091 80.7455 44.1091 80.6909 44.1091C80.6364 44.1091 80.6 44.1091 80.5636 44.1091C80.1818 44.1091 79.8364 44.0727 79.5273 44C79.2182 43.9273 78.9455 43.8182 78.6909 43.6909C78.3636 43.5091 78.1273 43.2727 77.9455 43C77.7636 42.7091 77.6727 42.3818 77.6727 42.0364C77.6727 41.7091 77.7636 41.4182 77.9273 41.1455C78.0909 40.8727 78.3091 40.6545 78.5818 40.4909C78.8364 40.3273 79.1273 40.2 79.4727 40.1273C79.8182 40.0364 80.1818 40 80.5636 40H80.6545C80.6545 40 80.7091 40 80.7273 40L80.7818 40.6545C80.7636 40.6545 80.7455 40.6545 80.7091 40.6545C80.6727 40.6545 80.6545 40.6545 80.6364 40.6545C80.3636 40.6545 80.1273 40.6727 79.9091 40.7091C79.7091 40.7455 79.5091 40.8 79.3091 40.8727C79.0545 40.9636 78.8364 41.1273 78.6909 41.3455C78.5455 41.5636 78.4545 41.8 78.4545 42.0364C78.4545 42.3273 78.5273 42.5818 78.6727 42.7818C78.8182 42.9818 79 43.1273 79.2545 43.2364C79.4364 43.3273 79.6364 43.3818 79.8727 43.4182C80.1091 43.4545 80.3455 43.4727 80.5818 43.4727H80.7273C80.7273 43.4727 80.8545 43.4545 80.8727 43.4545Z" fill="#FFE1B5"/>
<path d="M83.0545 39.2548H82.2V38.4912H83.0545V39.2548ZM83.0182 44.0912H82.2363C82.2363 44.0185 82.2363 43.7639 82.2545 43.2912C82.2545 42.8185 82.2545 42.4185 82.2545 42.0912C82.2545 41.8003 82.2545 41.4912 82.2545 41.1639C82.2545 40.8367 82.2545 40.4367 82.2363 40.0003H83.0182C83.0182 40.3821 83 40.7458 83 41.073V42.0003C83 42.6185 83 43.1094 83.0182 43.473V44.0912Z" fill="#FFE1B5"/>
<path d="M88.0546 41.927H85.1818C85.1818 42.1997 85.2364 42.4361 85.3637 42.6543C85.4727 42.8724 85.6546 43.0543 85.9091 43.1997C86.0727 43.2906 86.2364 43.3634 86.4364 43.3997C86.6364 43.4543 86.8546 43.4724 87.1273 43.4724C87.2909 43.4724 87.4364 43.4724 87.5637 43.4543C87.6909 43.4543 87.7637 43.4361 87.8 43.4361L87.7091 44.0543C87.6727 44.0543 87.6 44.0543 87.4728 44.0724C87.3455 44.0724 87.2 44.0906 87.0364 44.0906C86.6 44.0906 86.2182 44.0361 85.8727 43.927C85.5455 43.8179 85.2727 43.6724 85.0546 43.4724C84.8727 43.3088 84.7091 43.0906 84.5818 42.8361C84.4546 42.5815 84.4 42.2906 84.4 41.9815C84.4 41.6724 84.4546 41.3997 84.5455 41.1452C84.6364 40.8906 84.7818 40.6724 84.9637 40.4543C85.1273 40.2724 85.3273 40.127 85.5818 40.0361C85.8182 39.9452 86.0727 39.8906 86.3273 39.8906C86.5818 39.8906 86.8182 39.927 87.0182 39.9997C87.2182 40.0724 87.4 40.1997 87.5455 40.3452C87.7091 40.527 87.8364 40.7452 87.9273 40.9997C88.0182 41.2543 88.0546 41.5815 88.0546 41.927ZM87.2909 41.4543C87.2546 41.1452 87.1455 40.8906 86.9818 40.7088C86.8182 40.527 86.5818 40.4361 86.2909 40.4361C86 40.4361 85.7637 40.527 85.5818 40.7088C85.4 40.8906 85.2728 41.1452 85.2 41.4543H87.2909Z" fill="#FFE1B5"/>
<path d="M91.9091 40.5819C91.7454 40.6365 91.5091 40.7092 91.2181 40.8183C90.9272 40.9274 90.5636 41.0728 90.1636 41.2728V41.6728V42.3092C90.1636 42.6183 90.1636 42.9819 90.1818 43.4001C90.1818 43.8183 90.2 44.0546 90.2 44.1092H89.4181C89.4181 44.0546 89.4181 43.891 89.4181 43.6183C89.4181 43.3455 89.4181 42.9092 89.4181 42.3092C89.4181 42.0546 89.4181 41.7092 89.4181 41.291C89.4181 40.8546 89.4181 40.4365 89.4 40.0365H90.1636V40.6365C90.4545 40.4728 90.7454 40.3092 91.0363 40.1819C91.3272 40.0546 91.5636 39.9637 91.7454 39.9092L91.9091 40.5819Z" fill="#FFE1B5"/>
<path d="M96.2 39.9641V40.7459V42.055V42.9277V43.8005C96.2 44.255 96.1273 44.6186 95.9637 44.8732C95.8 45.1277 95.5819 45.3459 95.2728 45.5096C95.0182 45.6368 94.7091 45.7459 94.3455 45.8005C93.9819 45.8732 93.5819 45.9096 93.1273 45.8914L93.0546 45.2732C93.3637 45.2732 93.6546 45.255 93.9091 45.2186C94.1637 45.1823 94.4 45.1459 94.6 45.0732C94.9091 44.9641 95.1091 44.8186 95.2364 44.6368C95.3637 44.455 95.4182 44.2368 95.4182 43.9823C95.3819 43.9823 95.3637 43.9823 95.3273 43.9823C95.2909 43.9823 95.2728 43.9823 95.2364 43.9823C94.9273 43.9823 94.6 43.9459 94.2728 43.8732C93.9455 43.8005 93.6546 43.6732 93.4182 43.5277C93.1637 43.3641 92.9819 43.1459 92.8182 42.8914C92.6546 42.6368 92.6 42.3096 92.6 41.9459C92.6 41.5641 92.7091 41.2368 92.9091 40.9459C93.1091 40.655 93.4 40.4368 93.7637 40.255C94.0182 40.1459 94.291 40.055 94.5819 40.0005C94.891 39.9459 95.2546 39.9277 95.6728 39.9277H95.9273C96.0182 39.9641 96.1091 39.9641 96.2 39.9641ZM95.4364 42.0914C95.4364 41.9096 95.4364 41.6914 95.4364 41.4186C95.4364 41.1459 95.4364 40.8732 95.4182 40.5823C95.4 40.5823 95.3819 40.5823 95.3637 40.5823C95.3455 40.5823 95.3273 40.5823 95.3091 40.5823C95.0728 40.5823 94.8728 40.6005 94.7091 40.6186C94.5273 40.655 94.3455 40.7096 94.1637 40.7823C93.9091 40.8914 93.7091 41.055 93.5819 41.2732C93.4546 41.4914 93.3819 41.7277 93.3819 42.0005C93.3819 42.2732 93.4546 42.5096 93.5819 42.7096C93.7091 42.9096 93.891 43.055 94.1273 43.1641C94.291 43.2368 94.4546 43.2914 94.6546 43.3459C94.8546 43.4005 95.0728 43.4186 95.2909 43.4186H95.3637H95.4182C95.4182 43.3823 95.4182 43.2368 95.4182 42.9823C95.4182 42.7277 95.4364 42.4368 95.4364 42.0914Z" fill="#FFE1B5"/>
<path d="M101.2 41.927H98.3272C98.3272 42.1997 98.3818 42.4361 98.509 42.6543C98.6181 42.8724 98.8 43.0543 99.0545 43.1997C99.2181 43.2906 99.3818 43.3634 99.5818 43.3997C99.7818 43.4543 100 43.4724 100.273 43.4724C100.436 43.4724 100.582 43.4724 100.709 43.4543C100.836 43.4543 100.909 43.4361 100.945 43.4361L100.855 44.0543C100.818 44.0543 100.745 44.0543 100.618 44.0724C100.491 44.0724 100.345 44.0906 100.182 44.0906C99.7454 44.0906 99.3636 44.0361 99.0181 43.927C98.6909 43.8179 98.4181 43.6724 98.2 43.4724C98.0181 43.3088 97.8545 43.0906 97.7272 42.8361C97.6 42.5815 97.5454 42.2906 97.5454 41.9815C97.5454 41.6724 97.6 41.3997 97.6909 41.1452C97.7818 40.8906 97.9272 40.6724 98.109 40.4543C98.2727 40.2724 98.4727 40.127 98.7272 40.0361C98.9636 39.9452 99.2181 39.8906 99.4727 39.8906C99.7272 39.8906 99.9636 39.927 100.164 39.9997C100.364 40.0724 100.545 40.1997 100.691 40.3452C100.854 40.527 100.982 40.7452 101.073 40.9997C101.164 41.2543 101.182 41.5815 101.2 41.927ZM100.436 41.4543C100.4 41.1452 100.291 40.8906 100.127 40.7088C99.9636 40.527 99.7272 40.4361 99.4363 40.4361C99.1454 40.4361 98.909 40.527 98.7272 40.7088C98.5454 40.8906 98.4181 41.1452 98.3454 41.4543H100.436Z" fill="#FFE1B5"/>
<path d="M110.164 43.6554L109.727 44.2008L108.418 43.2008C108.073 43.5645 107.764 43.819 107.455 43.9826C107.145 44.1463 106.836 44.219 106.491 44.219C105.964 44.219 105.527 44.0735 105.182 43.8008C104.855 43.5099 104.673 43.1463 104.673 42.7099C104.673 42.4008 104.764 42.0917 104.964 41.819C105.145 41.5463 105.382 41.2917 105.655 41.0917V41.0735C105.455 40.9099 105.309 40.7463 105.2 40.5463C105.091 40.3645 105.036 40.1463 105.036 39.9281C105.036 39.5463 105.2 39.219 105.545 38.9463C105.891 38.6917 106.273 38.5645 106.727 38.5645C107.218 38.5645 107.618 38.6917 107.909 38.9281C108.218 39.1826 108.364 39.5099 108.364 39.9099C108.364 40.2008 108.273 40.4735 108.109 40.7281C107.945 40.9826 107.691 41.2735 107.327 41.5645V41.5826C107.491 41.7099 107.673 41.8554 107.873 42.019C108.073 42.1826 108.218 42.2917 108.291 42.3463C108.564 41.9826 108.818 41.619 109.036 41.2372C109.273 40.8735 109.382 40.6554 109.418 40.6372L110.018 41.0372C109.982 41.1099 109.818 41.3281 109.545 41.7281C109.273 42.1281 109.036 42.4372 108.818 42.6917L110.164 43.6554ZM107.909 42.8372C107.691 42.6554 107.418 42.4554 107.109 42.2008C106.8 41.9463 106.473 41.6917 106.127 41.419C105.873 41.6735 105.691 41.8917 105.618 42.0735C105.545 42.2554 105.491 42.4554 105.491 42.6554C105.491 42.9463 105.6 43.1645 105.782 43.3281C105.982 43.4917 106.218 43.5826 106.509 43.5826C106.8 43.5826 107.055 43.5099 107.273 43.3826C107.509 43.2554 107.727 43.0735 107.909 42.8372ZM107.618 40.0008C107.618 39.7463 107.545 39.5281 107.382 39.3826C107.218 39.219 107 39.1463 106.727 39.1463C106.473 39.1463 106.255 39.219 106.091 39.3645C105.909 39.5099 105.836 39.7099 105.836 39.9463C105.836 40.1463 105.927 40.3281 106.109 40.5281C106.291 40.7281 106.564 40.9645 106.927 41.2372C107.182 41.019 107.364 40.8008 107.473 40.6008C107.582 40.4008 107.618 40.2008 107.618 40.0008Z" fill="#FFE1B5"/>
<path d="M116.764 42.5462C116.764 42.8189 116.691 43.0735 116.564 43.2916C116.418 43.5098 116.236 43.6735 116.018 43.8007C115.8 43.928 115.564 44.0189 115.273 44.0735C114.982 44.128 114.691 44.1644 114.364 44.1644C114.182 44.1644 113.982 44.1644 113.8 44.1462C113.618 44.128 113.491 44.128 113.455 44.128L113.4 43.4189C113.436 43.4189 113.545 43.4371 113.727 43.4553C113.909 43.4735 114.109 43.4735 114.327 43.4735C114.473 43.4735 114.636 43.4553 114.855 43.4189C115.073 43.3825 115.236 43.3462 115.364 43.2916C115.527 43.2189 115.636 43.128 115.727 43.0371C115.8 42.928 115.855 42.8007 115.855 42.6553C115.855 42.4916 115.818 42.3462 115.727 42.2371C115.636 42.128 115.509 42.0007 115.309 41.8916C115.182 41.8189 115.018 41.7462 114.818 41.6553C114.618 41.5644 114.436 41.4735 114.291 41.3644C114.018 41.2007 113.818 41.0189 113.709 40.8189C113.6 40.6189 113.527 40.4007 113.527 40.1644C113.527 39.928 113.582 39.728 113.673 39.5462C113.782 39.3644 113.909 39.2189 114.073 39.0916C114.255 38.9462 114.491 38.8371 114.764 38.7644C115.036 38.6916 115.364 38.6553 115.709 38.6553C115.891 38.6553 116.073 38.6553 116.236 38.6735C116.4 38.6916 116.509 38.6916 116.527 38.6916L116.6 39.4007C116.564 39.4007 116.473 39.3825 116.309 39.3825C116.145 39.3644 115.945 39.3644 115.691 39.3644C115.545 39.3644 115.382 39.3825 115.236 39.4007C115.091 39.4371 114.945 39.4735 114.818 39.5462C114.709 39.6007 114.618 39.6735 114.545 39.7825C114.473 39.8916 114.436 40.0007 114.436 40.1462C114.436 40.2735 114.473 40.3825 114.564 40.5098C114.636 40.6189 114.782 40.7462 115 40.8553C115.109 40.928 115.255 41.0007 115.436 41.0735C115.618 41.1644 115.782 41.2553 115.964 41.3462C116.218 41.5098 116.418 41.6916 116.564 41.8916C116.691 42.0553 116.764 42.2916 116.764 42.5462Z" fill="#FFE1B5"/>
<path d="M121.545 41.927H118.673C118.673 42.1997 118.727 42.4361 118.855 42.6543C118.964 42.8724 119.145 43.0543 119.4 43.1997C119.564 43.2906 119.727 43.3634 119.927 43.3997C120.127 43.4543 120.345 43.4724 120.618 43.4724C120.782 43.4724 120.927 43.4724 121.055 43.4543C121.182 43.4543 121.255 43.4361 121.291 43.4361L121.2 44.0543C121.164 44.0543 121.091 44.0543 120.964 44.0724C120.836 44.0724 120.691 44.0906 120.527 44.0906C120.091 44.0906 119.709 44.0361 119.364 43.927C119.036 43.8179 118.764 43.6724 118.545 43.4724C118.364 43.3088 118.2 43.0906 118.073 42.8361C117.945 42.5815 117.891 42.2906 117.891 41.9815C117.891 41.6724 117.945 41.3997 118.036 41.1452C118.127 40.8906 118.273 40.6724 118.455 40.4543C118.618 40.2724 118.818 40.127 119.073 40.0361C119.309 39.9452 119.564 39.8906 119.818 39.8906C120.073 39.8906 120.309 39.927 120.509 39.9997C120.709 40.0724 120.891 40.1997 121.036 40.3452C121.2 40.527 121.327 40.7452 121.418 40.9997C121.509 41.2543 121.545 41.5815 121.545 41.927ZM120.782 41.4543C120.745 41.1452 120.636 40.8906 120.473 40.7088C120.309 40.527 120.073 40.4361 119.782 40.4361C119.491 40.4361 119.255 40.527 119.073 40.7088C118.891 40.8906 118.764 41.1452 118.691 41.4543H120.782Z" fill="#FFE1B5"/>
<path d="M125.4 40.5819C125.236 40.6365 125 40.7092 124.709 40.8183C124.418 40.9274 124.055 41.0728 123.655 41.2728V41.6728V42.3092C123.655 42.6183 123.655 42.9819 123.673 43.4001C123.673 43.8183 123.691 44.0546 123.691 44.1092H122.909C122.909 44.0546 122.909 43.891 122.909 43.6183C122.909 43.3455 122.909 42.9092 122.909 42.3092C122.909 42.0546 122.909 41.7092 122.909 41.291C122.909 40.8546 122.909 40.4365 122.891 40.0365H123.655V40.6365C123.945 40.4728 124.236 40.3092 124.527 40.1819C124.818 40.0546 125.055 39.9637 125.236 39.9092L125.4 40.5819Z" fill="#FFE1B5"/>
<path d="M130.018 40.1819C129.655 41.0001 129.291 41.8365 128.927 42.691C128.545 43.5455 128.346 44.0183 128.327 44.091H127.673C127.636 44.0183 127.436 43.5637 127.091 42.7455C126.727 41.9274 126.346 41.091 125.964 40.2001L126.709 39.9092L128.036 43.1092H128.055L129.327 39.9274L130.018 40.1819Z" fill="#FFE1B5"/>
<path d="M132.091 39.2548H131.236V38.4912H132.091V39.2548ZM132.055 44.0912H131.273C131.273 44.0185 131.273 43.7639 131.291 43.2912C131.291 42.8185 131.291 42.4185 131.291 42.0912C131.291 41.8003 131.291 41.4912 131.291 41.1639C131.291 40.8367 131.291 40.4367 131.273 40.0003H132.055C132.055 40.3821 132.036 40.7458 132.036 41.073V42.0003C132.036 42.6185 132.036 43.1094 132.055 43.473V44.0912Z" fill="#FFE1B5"/>
<path d="M136.6 43.4545L136.527 44.1091C136.509 44.1091 136.473 44.1091 136.418 44.1091C136.364 44.1091 136.327 44.1091 136.291 44.1091C135.909 44.1091 135.564 44.0727 135.255 44C134.945 43.9273 134.673 43.8182 134.418 43.6909C134.091 43.5091 133.855 43.2727 133.673 43C133.491 42.7091 133.4 42.3818 133.4 42.0364C133.4 41.7091 133.491 41.4182 133.655 41.1455C133.818 40.8727 134.036 40.6545 134.309 40.4909C134.564 40.3273 134.855 40.2 135.2 40.1273C135.545 40.0364 135.909 40 136.291 40H136.382C136.382 40 136.436 40 136.455 40L136.509 40.6545C136.491 40.6545 136.473 40.6545 136.436 40.6545C136.4 40.6545 136.382 40.6545 136.364 40.6545C136.091 40.6545 135.855 40.6727 135.636 40.7091C135.436 40.7455 135.236 40.8 135.036 40.8727C134.782 40.9636 134.564 41.1273 134.418 41.3455C134.273 41.5636 134.182 41.8 134.182 42.0364C134.182 42.3273 134.255 42.5818 134.4 42.7818C134.545 42.9818 134.727 43.1273 134.982 43.2364C135.164 43.3273 135.364 43.3818 135.6 43.4182C135.836 43.4545 136.073 43.4727 136.309 43.4727H136.455C136.455 43.4727 136.582 43.4545 136.6 43.4545Z" fill="#FFE1B5"/>
<path d="M141.2 41.927H138.327C138.327 42.1997 138.382 42.4361 138.509 42.6543C138.618 42.8724 138.8 43.0543 139.055 43.1997C139.218 43.2906 139.382 43.3634 139.582 43.3997C139.782 43.4543 140 43.4724 140.273 43.4724C140.436 43.4724 140.582 43.4724 140.709 43.4543C140.836 43.4543 140.909 43.4361 140.945 43.4361L140.855 44.0543C140.818 44.0543 140.745 44.0543 140.618 44.0724C140.491 44.0724 140.345 44.0906 140.182 44.0906C139.745 44.0906 139.364 44.0361 139.018 43.927C138.691 43.8179 138.418 43.6724 138.2 43.4724C138.018 43.3088 137.855 43.0906 137.727 42.8361C137.6 42.5815 137.545 42.2906 137.545 41.9815C137.545 41.6724 137.6 41.3997 137.691 41.1452C137.782 40.8906 137.927 40.6724 138.109 40.4543C138.273 40.2724 138.473 40.127 138.727 40.0361C138.964 39.9452 139.218 39.8906 139.473 39.8906C139.727 39.8906 139.964 39.927 140.164 39.9997C140.364 40.0724 140.545 40.1997 140.691 40.3452C140.855 40.527 140.982 40.7452 141.073 40.9997C141.145 41.2724 141.2 41.5815 141.2 41.927ZM140.436 41.4543C140.4 41.1452 140.291 40.8906 140.127 40.7088C139.964 40.527 139.727 40.4361 139.436 40.4361C139.145 40.4361 138.909 40.527 138.727 40.7088C138.545 40.8906 138.418 41.1452 138.345 41.4543H140.436Z" fill="#FFE1B5"/>
<path d="M74.8 14.2363V15.8363H64.8909V22.4364H73.4V24.0364H64.8909V33.4545H62.3818V14.2363H74.8Z" fill="#FFE1B5"/>
<path d="M83.0728 14.2363V33.4545H80.5818V14.2363H83.0728Z" fill="#FFE1B5"/>
<path d="M92.3273 24.9636H93.5455C94.0545 24.9636 94.4909 25.0182 94.8182 25.1091C95.1636 25.2 95.4727 25.3636 95.7455 25.5818C96.0182 25.8 96.2727 26.0909 96.5091 26.4364C96.7455 26.7818 97.0364 27.2182 97.3636 27.7273L99.5455 30.9455C99.8182 31.3636 100.091 31.7455 100.345 32.0909C100.6 32.4364 100.891 32.7273 101.2 32.9818C101.509 33.2364 101.855 33.4182 102.255 33.5636C102.655 33.7091 103.109 33.7818 103.673 33.7818C104.073 33.7818 104.4 33.7636 104.655 33.7273C104.909 33.6909 105.164 33.6 105.418 33.4545V32.4364C105.327 32.4545 105.236 32.4727 105.145 32.4727C105.055 32.4909 104.964 32.4909 104.873 32.4909C104.491 32.4909 104.145 32.4364 103.855 32.3273C103.564 32.2182 103.291 32.0545 103.036 31.8545C102.782 31.6364 102.527 31.3818 102.291 31.0909C102.055 30.7818 101.8 30.4545 101.564 30.0545C100.8 28.9455 100.218 28.0545 99.8 27.3818C99.3818 26.7091 99.0546 26.2 98.8 25.8364C98.5455 25.4727 98.3455 25.2 98.2 25.0364C98.0364 24.8727 97.8545 24.7273 97.6364 24.6182L97.3636 24.4727V24.3636C98.2364 24.3091 99 24.1091 99.6182 23.7818C100.255 23.4545 100.764 23.0364 101.164 22.5455C101.564 22.0545 101.855 21.5091 102.036 20.9455C102.218 20.3636 102.309 19.8 102.309 19.2545C102.309 18.7636 102.218 18.2182 102.018 17.6363C101.818 17.0545 101.491 16.5091 101.036 16C100.564 15.4909 99.9273 15.0727 99.1273 14.7454C98.3273 14.4 97.3091 14.2363 96.0727 14.2363H89.8364V33.4545H92.3273V24.9636ZM92.3273 15.4363H95.1091C95.8 15.4363 96.4364 15.5454 97 15.7454C97.5636 15.9454 98.0364 16.2181 98.4545 16.5818C98.8545 16.9454 99.1636 17.3636 99.3818 17.8545C99.6 18.3455 99.6909 18.8909 99.6909 19.4727C99.6909 19.9636 99.6 20.4727 99.4 20.9636C99.2 21.4727 98.9091 21.9273 98.5273 22.3273C98.1455 22.7455 97.6727 23.0727 97.1091 23.3273C96.5455 23.5818 95.9091 23.7091 95.1636 23.7091H92.3273V15.4363Z" fill="#FFE1B5"/>
<path d="M109.636 28.5997C109.655 28.8361 109.727 29.1997 109.855 29.6361C109.982 30.0906 110.236 30.527 110.6 30.9452C110.964 31.3634 111.491 31.727 112.2 32.0361C112.891 32.3452 113.818 32.4906 114.982 32.4906C116.436 32.4906 117.582 32.2179 118.455 31.6725C119.327 31.127 119.764 30.2543 119.764 29.0543C119.764 28.1088 119.491 27.4361 118.945 26.8725C118.4 26.3088 117.709 25.8179 116.873 25.4361C116.036 25.0361 115.145 24.6906 114.164 24.3816C113.2 24.0725 112.291 23.6906 111.455 23.2543C110.618 22.8179 109.927 22.2725 109.382 21.5997C108.836 20.9452 108.564 20.0725 108.564 18.9816C108.564 18.1634 108.727 17.4179 109.073 16.7815C109.418 16.1452 109.873 15.6179 110.455 15.1815C111.036 14.7634 111.709 14.4361 112.455 14.2179C113.218 13.9997 114.018 13.8906 114.855 13.8906C115.655 13.8906 116.436 13.9815 117.182 14.1815C117.927 14.3815 118.582 14.6543 119.182 15.0361C119.764 15.4179 120.255 15.8724 120.636 16.4179C121.018 16.9634 121.273 17.5634 121.382 18.2361H119.509C119.364 17.1634 118.873 16.4543 118.036 15.9634C117.2 15.4543 116.182 15.1997 115 15.1997C114.291 15.1997 113.655 15.2906 113.109 15.4543C112.564 15.6361 112.091 15.8543 111.727 16.1452C111.345 16.4361 111.073 16.7634 110.873 17.1452C110.673 17.527 110.582 17.9452 110.582 18.3816C110.582 19.1634 110.873 19.7088 111.436 20.1816C112 20.6543 112.709 21.0725 113.564 21.4543C114.418 21.8179 115.345 22.1634 116.345 22.4906C117.345 22.8179 118.273 23.2361 119.127 23.7088C119.982 24.1997 120.691 24.7997 121.255 25.527C121.818 26.2543 122.109 27.1816 122.109 28.3088C122.109 29.127 121.945 29.8906 121.618 30.5634C121.291 31.2361 120.818 31.8179 120.218 32.2906C119.618 32.7634 118.891 33.127 118.036 33.3816C117.182 33.6361 116.218 33.7634 115.164 33.7634C114.109 33.7634 113.145 33.6361 112.273 33.3997C111.4 33.1452 110.618 32.7997 109.982 32.3634C109.327 31.9088 108.818 31.3634 108.436 30.727C108.055 30.0906 107.855 29.3634 107.818 28.5816H109.636V28.5997Z" fill="#FFE1B5"/>
<path d="M131.345 33.4545V15.8363H123.982V14.2363H141.2V15.8363H133.836V33.4545H131.345Z" fill="#FFE1B5"/>
<path d="M0.0545044 -0.0722656V59.9095H48.4364V-0.0722656H0.0545044ZM1.59996 57.255V2.58228L7.39996 8.38228V51.5095L1.59996 57.255ZM39.8909 7.29137H8.52723L2.70905 1.47319H45.7455L39.8909 7.29137ZM16.9636 37.255H31.0182V28.1641H16.9636V16.3823H31.4364V22.8368H39.4727V50.9641H16.9636V37.255ZM39.4364 21.2732H33.0182V14.8186H15.4181V29.7277H29.4545V35.6914H15.4V50.9641H8.98178V8.85501H39.4182V21.2732H39.4364ZM16.6727 52.5459L16.9636 52.5277H39.9454L45.7636 58.3459H2.72723L8.61814 52.5459H16.6727ZM41.0545 51.4186V8.34592L46.8727 2.58228V57.2368L41.0545 51.4186Z" fill="#FFE1B5"/>
</svg>
