<svg xmlns="http://www.w3.org/2000/svg" xmlns:xlink="http://www.w3.org/1999/xlink"><symbol id="icon-arr-down" viewBox="0 0 25 13"><path d="M25 .762L12.5 13 0 .758.768.006 12.5 11.5 24.232.01z" fill-rule="evenodd"/></symbol><symbol id="icon-arr-next" viewBox="0 0 11.969 21"><path d="M-.011 19.6l9.158-9.1-9.154-9.1L1.402 0l10.567 10.5L1.397 21z" fill-rule="evenodd"/></symbol><symbol id="icon-arr-prev" viewBox="0 0 11.969 21"><path d="M11.98 1.4l-9.158 9.1 9.154 9.1-1.409 1.4L0 10.5 10.572 0z" fill-rule="evenodd"/></symbol><symbol id="icon-close" viewBox="0 0 24 21"><path d="M4.222.808l16.97 16.97-1.414 1.415-16.97-16.97z"/><path d="M2.808 17.778L19.778.808l1.415 1.413L4.222 19.192z"/></symbol><symbol id="icon-crown" viewBox="0 0 49 49"><path d="M45.13 8.486c-1.589 0-2.88 1.273-2.88 2.837a2.81 2.81 0 001.152 2.256l-7.873 7.759-9.793-9.65a2.81 2.81 0 001.153-2.256c0-1.565-1.292-2.838-2.88-2.838-1.588 0-2.88 1.273-2.88 2.838a2.81 2.81 0 001.153 2.255l-9.793 9.65-7.873-7.757a2.811 2.811 0 001.153-2.257c0-1.564-1.292-2.837-2.88-2.837-1.588 0-2.88 1.273-2.88 2.837 0 1.29.883 2.368 2.079 2.713L6.55 34.26a2.84 2.84 0 00-1.74 2.604v3.784c0 .522.43.946.96.946h36.48c.529 0 .96-.424.96-.946v-3.784a2.84 2.84 0 00-1.741-2.604l4.462-20.224c1.196-.345 2.078-1.423 2.078-2.713 0-1.564-1.292-2.837-2.88-2.837zm-21.12 0c.528 0 .96.425.96.946a.955.955 0 01-.96.946.955.955 0 01-.96-.946c0-.521.43-.946.96-.946zM2.89 10.378c.528 0 .96.424.96.945a.955.955 0 01-.96.947.955.955 0 01-.96-.947c0-.52.43-.945.96-.945zm38.4 29.324H6.73v-2.838c0-.52.43-.946.96-.946h32.64c.528 0 .96.425.96.946v2.838zm-1.734-5.675H8.463L4.522 16.162l7.288 7.181c.376.37.982.37 1.357 0L24.01 12.661 34.85 23.344c.375.37.982.37 1.357 0l7.289-7.182-3.94 17.864zm5.573-21.758a.955.955 0 01-.96-.946c0-.52.431-.945.96-.945.529 0 .96.424.96.945a.955.955 0 01-.96.947z"/><path d="M24.688 20.114a.969.969 0 00-1.357 0l-4.8 4.73a.935.935 0 000 1.337l4.8 4.73a.967.967 0 001.357 0l4.8-4.73a.935.935 0 000-1.337l-4.8-4.73zm-.679 8.79l-3.442-3.392 3.442-3.392 3.443 3.392-3.443 3.393zM10.848 37.139a1.086 1.086 0 00-.202.312.923.923 0 00-.077.36c0 .245.106.492.279.67.182.172.432.275.681.275.25 0 .5-.103.682-.274a.985.985 0 00.278-.672.986.986 0 00-.278-.671c-.365-.35-1.008-.35-1.363 0zM19.852 36.864a.95.95 0 00-.96.946c0 .52.423.946.96.946.528 0 .96-.425.96-.946a.956.956 0 00-.96-.946zM28.166 36.864a.956.956 0 00-.96.946c0 .52.432.946.96.946a.95.95 0 00.96-.946.95.95 0 00-.96-.946zM37.17 37.139a1.105 1.105 0 00-.316-.199.97.97 0 00-1.047.199 1.084 1.084 0 00-.201.312.93.93 0 00-.077.36c0 .245.105.491.279.67.182.171.432.275.681.275.125 0 .25-.028.365-.075.115-.048.22-.114.316-.199a.987.987 0 00.28-.672.93.93 0 00-.078-.36 1.088 1.088 0 00-.202-.311z"/></symbol><symbol id="icon-enter" viewBox="0 0 20 26"><path d="M7.85 17.722l1.23 1.229 5.828-5.83-5.83-5.828L7.85 8.522l3.73 3.73H.644v1.739H11.58l-3.73 3.731zM4.12.955v1.738h13.905V23.55H4.119v1.738h15.644V.955H4.119z"/></symbol><symbol id="icon-gewel" viewBox="0 0 49 49"><path d="M47.942 23.696c-.003-.008-.003-.016-.007-.025v-.002a.899.899 0 00-.189-.27c-.008-.008-.01-.02-.02-.029l-5.76-5.524a.972.972 0 00-.313-.2.965.965 0 00-.365-.072H6.724a1.009 1.009 0 00-.68.27l-5.76 5.525c-.009.008-.012.02-.02.028a.9.9 0 00-.188.27l-.001.003c-.004.008-.003.016-.007.024a.877.877 0 00-.059.29c0 .031.003.062.005.094a.85.85 0 00.046.227c.011.031.02.06.034.091.047.1.105.193.189.273l23.043 22.1c.009.01.024.014.035.023a.968.968 0 00.191.133c.009.005.015.013.024.018l.038.012c.008.004.016.01.024.013.015.005.03.005.045.011l.008.003c.025.008.049.02.074.026.08.02.16.032.24.032h.002c.08 0 .16-.011.24-.03.025-.007.049-.018.073-.027a.057.057 0 00.009-.003c.014-.004.03-.005.044-.01.009-.004.016-.01.025-.013.012-.006.025-.008.037-.013.01-.005.015-.013.024-.018a.98.98 0 00.191-.133c.011-.009.025-.014.036-.023l23.043-22.1a.899.899 0 00.189-.273c.014-.03.023-.06.033-.09a.89.89 0 00.047-.227c.001-.032.006-.063.004-.095a.87.87 0 00-.06-.289zm-15.858-4.28h6.886l-3.442 3.302-3.444-3.302zm1.126 3.683h-6.886l3.443-3.302 3.443 3.302zm-9.204-.38l-3.443-3.303h6.886l-3.443 3.302zm-2.317.38h-6.886l3.442-3.302 3.444 3.302zm-9.204-.38l-3.443-3.303h6.886l-3.443 3.302zm-5.76-2.922l3.442 3.302H3.281l3.443-3.302zm16.321 5.144v17.277l-9.008-17.277h9.008zm1.92 0h9.008l-9.008 17.277V24.941zm16.322-5.144l3.443 3.302h-6.886l3.443-3.302zM11.891 24.94l8.61 16.516L3.281 24.94h8.61zM27.51 41.457l8.61-16.516h8.61L27.51 41.457zM6.724 5.604c.53 0 .96-.413.96-.921V1.92c0-.508-.43-.92-.96-.92s-.96.412-.96.92v2.763c0 .508.43.92.96.92zM6.724 7.445c-.53 0-.96.413-.96.921v2.763c0 .508.43.92.96.92s.96-.412.96-.92V8.366c0-.508-.43-.92-.96-.92zM8.644 7.445h2.88c.53 0 .96-.413.96-.92 0-.509-.43-.921-.96-.921h-2.88c-.53 0-.96.412-.96.92s.43.921.96.921zM1.924 7.445h2.88c.53 0 .96-.413.96-.92 0-.509-.43-.921-.96-.921h-2.88c-.53 0-.96.412-.96.92s.43.921.96.921zM42.248 10.208c.53 0 .96-.413.96-.921V6.524c0-.508-.43-.92-.96-.92s-.96.412-.96.92v2.763c0 .508.43.92.96.92zM42.248 12.05c-.53 0-.96.412-.96.92v2.763c0 .508.43.92.96.92s.96-.412.96-.92V12.97c0-.508-.43-.92-.96-.92zM47.049 10.207h-2.88c-.53 0-.96.413-.96.921s.43.921.96.921h2.88c.53 0 .96-.413.96-.92 0-.509-.43-.921-.96-.921zM37.448 12.05h2.88c.53 0 .96-.414.96-.922s-.43-.92-.96-.92h-2.88c-.53 0-.96.412-.96.92s.43.921.96.921z"/></symbol><symbol id="icon-inst" viewBox="0 0 20 19"><path fill-rule="evenodd" clip-rule="evenodd" d="M6.29.554C7.25.51 7.555.5 10 .5s2.75.01 3.71.054c.959.044 1.613.196 2.185.419A4.41 4.41 0 0117.49 2.01c.5.5.808 1.002 1.038 1.594.223.572.375 1.226.419 2.184.044.96.054 1.267.054 3.711s-.01 2.75-.054 3.71c-.044.959-.196 1.613-.419 2.185a4.412 4.412 0 01-1.038 1.595c-.5.5-1.002.808-1.594 1.038-.572.222-1.226.374-2.184.418-.96.044-1.267.054-3.711.054s-2.75-.01-3.71-.054c-.959-.044-1.613-.196-2.185-.419A4.412 4.412 0 012.51 16.99c-.5-.5-.809-1.002-1.039-1.594-.222-.572-.374-1.226-.418-2.184C1.01 12.25 1 11.944 1 9.5s.01-2.75.054-3.71c.044-.959.196-1.613.418-2.185A4.412 4.412 0 012.511 2.01c.5-.5 1.002-.808 1.594-1.038C4.677.75 5.33.598 6.289.554zm8.514 5.222a1.08 1.08 0 100-2.16 1.08 1.08 0 000 2.16zM13.026 9.5a3.026 3.026 0 11-6.052 0 3.026 3.026 0 016.052 0zm1.6 0a4.626 4.626 0 11-9.251 0 4.626 4.626 0 019.25 0z"/></symbol><symbol id="icon-mail" viewBox="0 0 17 13"><path d="M8.517 7.18L.028.97A1.216 1.216 0 011.209 0h14.582a1.217 1.217 0 011.186.992zm-2.785-.6L0 10.6V2.383zm.987.72l1.8 1.315 1.784-1.3L16.981 12a1.217 1.217 0 01-1.19 1H1.209a1.217 1.217 0 01-1.187-1zm4.569-.711L17 2.408v8.186z" fill-rule="evenodd"/></symbol><symbol id="icon-menu" viewBox="0 0 50 18"><path d="M0 0h50v1.989H0V0zm16 8h34v2H16V8zm17 8l17 .011V18H33v-2z" fill-rule="evenodd"/></symbol><symbol id="icon-pdf" viewBox="0 0 24 30"><path d="M14.392.281H3.602c-.952 0-1.866.382-2.54 1.062A3.641 3.641 0 00.009 3.906v21.75c0 .962.379 1.884 1.053 2.564a3.578 3.578 0 002.54 1.061h15.813c.954 0 1.868-.382 2.541-1.061a3.64 3.64 0 001.053-2.564V8.981l-8.617-8.7zm5.848 7.975h-2.98c-.573 0-1.12-.23-1.525-.637a2.187 2.187 0 01-.632-1.538v-3.02l5.137 5.195zm1.332 17.4c-.001.577-.228 1.13-.632 1.538a2.15 2.15 0 01-1.525.637H3.603a2.15 2.15 0 01-1.524-.637 2.187 2.187 0 01-.632-1.538V3.906c0-.576.228-1.13.632-1.537a2.15 2.15 0 011.524-.638h10.062v4.35c0 .962.38 1.884 1.053 2.564a3.578 3.578 0 002.541 1.061h4.313v15.95z"/><path d="M16.538 20.875c-.018-.182-.194-1.091-1.725-1.05-1.081.027-1.575.086-1.77.118-.23-.252-1.031-1.147-1.379-1.873.097-.305.473-1.55.453-2.392-.017-.756-.156-1.622-1.084-1.622h-.015c-.27.003-.484.09-.634.259-.24.27-.31.715-.234 1.488.072.736.393 1.567.485 1.797a27.051 27.051 0 01-.714 1.964 19.335 19.335 0 01-.669 1.473c-.293.106-1.468.554-2.035 1.099-.527.507-1.006 1.11-.561 1.732.148.207.425.333.741.336h.01c.57 0 1.175-.377 1.662-1.037.734-.995 1.129-1.673 1.245-1.881.281-.079 1.32-.372 1.674-.46.302-.076.656-.14.817-.17.277.269 1.369 1.246 2.458 1.21.505-.02.87-.154 1.085-.4a.79.79 0 00.192-.593l-.002.002zM7.41 23.442a.253.253 0 01-.219-.023c-.062-.039-.068-.069-.056-.118.081-.366.967-.984 1.525-1.28-.323.55-.839 1.302-1.25 1.42zm3.574-8.754c.061 0 .207 0 .213.553.004.37-.139.971-.25 1.382a4.04 4.04 0 01-.199-1.178c0-.556.143-.757.235-.757zm.493 5.607a7.85 7.85 0 00-.73.221l.129-.299c.186-.431.373-.95.49-1.291.265.417.557.817.873 1.197-.176.033-.426.088-.763.173zm3.856.768c-.324.138-1.045-.072-1.656-.546.64-.084 1.468-.105 1.737.12a.192.192 0 01.077.159c0 .138-.052.22-.158.267z"/></symbol><symbol id="icon-phone-lined" viewBox="0 0 20 21"><path d="M18.564 10.476c-.142-2.293-1.013-4.24-2.613-5.84-1.6-1.6-3.542-2.466-5.827-2.6V.71a9.855 9.855 0 013.716.873 10.284 10.284 0 015.164 5.175 10.01 10.01 0 01.884 3.716h-1.324zm-4.862 0a4.18 4.18 0 00-1.195-2.387 4.047 4.047 0 00-2.383-1.174V5.59c1.3.127 2.408.646 3.32 1.556.912.91 1.44 2.02 1.582 3.329h-1.324zm4.911 10.311c-2.17 0-4.354-.557-6.551-1.671a23.297 23.297 0 01-5.95-4.32 23.174 23.174 0 01-4.326-5.94C.672 6.664.115 4.482.115 2.312c0-.368.123-.676.369-.921a1.25 1.25 0 01.921-.369h3.332c.297 0 .557.096.778.288.222.193.365.452.431.778l.698 3.136c.046.287.04.548-.02.783s-.175.43-.344.584L3.53 9.28c1.118 1.86 2.36 3.465 3.722 4.814a20.836 20.836 0 004.711 3.48L14.6 14.84c.194-.214.412-.362.654-.446.241-.084.492-.097.752-.038l2.832.623c.32.066.578.218.773.456.195.238.292.523.292.855v3.208c0 .369-.122.676-.368.921a1.25 1.25 0 01-.922.369zM2.857 8.079l2.407-2.335c.03-.03.05-.071.062-.124a.388.388 0 00.005-.145l-.637-2.95a.186.186 0 00-.073-.135.25.25 0 00-.151-.045H1.596a.152.152 0 00-.112.045.152.152 0 00-.045.112c-.015.766.1 1.608.344 2.527.245.92.602 1.936 1.074 3.05zm10.347 10.117c.797.392 1.67.697 2.618.915.949.218 1.815.34 2.6.363a.152.152 0 00.158-.157v-2.862a.25.25 0 00-.045-.152.186.186 0 00-.135-.073l-2.645-.545a.244.244 0 00-.118.006.354.354 0 00-.106.061l-2.327 2.444z"/></symbol><symbol id="icon-phone" viewBox="0 0 18 18"><path d="M16.354 9.13c-.122-1.971-.87-3.644-2.246-5.02-1.375-1.375-3.045-2.12-5.01-2.236V.736a8.472 8.472 0 013.195.75 8.84 8.84 0 014.44 4.45c.453.996.706 2.061.76 3.194h-1.139zm-4.18 0a3.594 3.594 0 00-1.026-2.051 3.479 3.479 0 00-2.05-1.01V4.931a4.55 4.55 0 012.855 1.338c.784.782 1.237 1.736 1.36 2.861h-1.138zm4.223 8.865c-1.866 0-3.743-.48-5.632-1.437a20.025 20.025 0 01-5.115-3.714 19.921 19.921 0 01-3.72-5.105C.974 5.853.495 3.977.495 2.11c0-.317.106-.58.317-.792.211-.211.475-.317.792-.317h2.864c.256 0 .479.083.67.248.19.165.313.388.37.668l.6 2.697c.04.247.034.471-.018.673a.994.994 0 01-.295.502L3.429 8.102c.962 1.6 2.029 2.98 3.2 4.14a17.912 17.912 0 004.05 2.99l2.267-2.35a1.36 1.36 0 01.562-.384c.208-.072.424-.083.648-.033l2.434.536c.275.057.496.187.664.392.168.204.252.45.252.735v2.758c0 .317-.106.58-.317.792a1.075 1.075 0 01-.792.317z"/></symbol><symbol id="icon-star" viewBox="0 0 14 15"><path d="M7 .183l1.485 5.515L14 7.183 8.485 8.668 7 14.183 5.515 8.668 0 7.183l5.515-1.485L7 .183z"/></symbol><symbol id="icon-tgm" viewBox="0 0 16 15"><path d="M15.954 1.773L13.54 13.645c-.182.837-.657 1.046-1.332.651l-3.68-2.826-1.775 1.78c-.196.205-.36.376-.74.376l.265-3.906 6.819-6.423c.296-.276-.065-.429-.46-.153l-8.43 5.534-3.63-1.184c-.788-.257-.803-.823.165-1.218L14.936.574c.658-.256 1.233.153 1.018 1.2z"/></symbol><symbol id="icon-timer" viewBox="0 0 46 46"><path d="M6.6.984a1.122 1.122 0 00-.12.03.962.962 0 00-.75.96v8.64h8.64a.965.965 0 00.843-.476.97.97 0 000-.968.966.966 0 00-.844-.476H8.91c3.638-3.559 8.606-5.76 14.1-5.76 11.145 0 20.16 9.015 20.16 20.16s-9.015 20.16-20.16 20.16-20.16-9.015-20.16-20.16c0-3.334.821-6.473 2.25-9.24l-1.71-.87a21.948 21.948 0 00-2.46 10.11c0 12.184 9.896 22.08 22.08 22.08 12.184 0 22.08-9.896 22.08-22.08 0-12.184-9.896-22.08-22.08-22.08-5.977 0-11.385 2.404-15.36 6.27v-5.31A.96.96 0 006.6.984zm16.41 2.91a.962.962 0 00-.96.96c0 .529.43.96.96.96.528 0 .96-.431.96-.96a.962.962 0 00-.96-.96zm9.12 2.43a.962.962 0 00-.96.96c0 .529.43.96.96.96.528 0 .96-.431.96-.96a.962.962 0 00-.96-.96zm6.69 6.69a.962.962 0 00-.96.96c0 .529.43.96.96.96.528 0 .96-.431.96-.96a.962.962 0 00-.96-.96zm-22.17 2.31c-2.663 0-4.56 1.736-4.56 4.23v.03h1.98v-.03c0-1.444.997-2.4 2.49-2.4 1.394 0 2.46.922 2.46 2.16 0 .994-.44 1.714-2.25 3.6l-4.56 4.74v1.53h9.12v-1.89h-6.21v-.15l3.03-3.06c2.268-2.295 2.94-3.458 2.94-4.89 0-2.231-1.872-3.87-4.44-3.87zm12.69.33c-2.412 3.611-4.43 6.757-5.64 8.97v1.95h6.6v2.61h2.01v-2.61h1.89v-1.89h-1.89v-9.03h-2.97zm.87 1.86h.12v7.23h-4.62v-.15a101.733 101.733 0 014.5-7.08zm-25.44 4.62a.962.962 0 00-.96.96c0 .529.43.96.96.96.528 0 .96-.431.96-.96a.962.962 0 00-.96-.96zm36.48 0a.962.962 0 00-.96.96c0 .529.43.96.96.96.528 0 .96-.431.96-.96a.962.962 0 00-.96-.96zM7.2 31.254a.962.962 0 00-.96.96c0 .529.43.96.96.96.528 0 .96-.431.96-.96a.962.962 0 00-.96-.96zm31.62 0a.962.962 0 00-.96.96c0 .529.43.96.96.96.528 0 .96-.431.96-.96a.962.962 0 00-.96-.96zm-24.93 6.69a.962.962 0 00-.96.96c0 .529.43.96.96.96.528 0 .96-.431.96-.96a.962.962 0 00-.96-.96zm18.24 0a.962.962 0 00-.96.96c0 .529.43.96.96.96.528 0 .96-.431.96-.96a.962.962 0 00-.96-.96zm-9.12 2.43a.962.962 0 00-.96.96c0 .529.43.96.96.96.528 0 .96-.431.96-.96a.962.962 0 00-.96-.96z"/></symbol><symbol id="icon-wapp" viewBox="0 0 18 19"><path fill-rule="evenodd" clip-rule="evenodd" d="M14.954 3.188A8.674 8.674 0 008.793.646c-4.8 0-8.709 3.889-8.71 8.669a8.614 8.614 0 001.162 4.334L.01 18.14l4.618-1.205a8.73 8.73 0 004.162 1.054h.004c4.8 0 8.707-3.888 8.71-8.668a8.596 8.596 0 00-2.55-6.132zm-2.19 7.942c-.218-.11-1.29-.633-1.487-.705-.199-.073-.345-.109-.49.108-.145.217-.562.703-.69.85-.126.146-.253.162-.47.053-.218-.108-.92-.337-1.751-1.075-.647-.574-1.084-1.283-1.21-1.5-.128-.217-.014-.334.095-.442.098-.097.217-.253.326-.38.109-.126.145-.217.218-.36.072-.146.036-.272-.018-.38-.055-.108-.49-1.175-.671-1.609-.177-.422-.356-.365-.49-.371a8.876 8.876 0 00-.417-.008.8.8 0 00-.58.271c-.2.217-.762.742-.762 1.807s.78 2.096.888 2.24c.108.145 1.535 2.333 3.718 3.271.405.174.82.326 1.241.456.521.165.996.142 1.37.086.419-.062 1.29-.524 1.47-1.03.18-.506.181-.94.127-1.03-.054-.09-.2-.144-.418-.252z"/></symbol> <view id="icon-arr-down-view-light" viewBox="0 0 25 13"/><view id="icon-arr-down-view-black" viewBox="0 23 25 13"/><view id="icon-arr-down-view-white" viewBox="0 46 25 13"/><view id="icon-arr-next-view-light" viewBox="0 69 11.969 21"/><view id="icon-arr-next-view-black" viewBox="0 100 11.969 21"/><view id="icon-arr-next-view-white" viewBox="0 131 11.969 21"/><view id="icon-arr-prev-view-light" viewBox="0 162 11.969 21"/><view id="icon-arr-prev-view-black" viewBox="0 193 11.969 21"/><view id="icon-arr-prev-view-white" viewBox="0 224 11.969 21"/><view id="icon-close-view-light" viewBox="0 255 24 21"/><view id="icon-close-view-black" viewBox="0 286 24 21"/><view id="icon-close-view-white" viewBox="0 317 24 21"/><view id="icon-crown-view-light" viewBox="0 348 49 49"/><view id="icon-crown-view-black" viewBox="0 407 49 49"/><view id="icon-crown-view-white" viewBox="0 466 49 49"/><view id="icon-enter-view-light" viewBox="0 525 20 26"/><view id="icon-enter-view-black" viewBox="0 561 20 26"/><view id="icon-enter-view-white" viewBox="0 597 20 26"/><view id="icon-gewel-view-light" viewBox="0 633 49 49"/><view id="icon-gewel-view-black" viewBox="0 692 49 49"/><view id="icon-gewel-view-white" viewBox="0 751 49 49"/><view id="icon-inst-view-light" viewBox="0 810 20 19"/><view id="icon-inst-view-black" viewBox="0 839 20 19"/><view id="icon-inst-view-white" viewBox="0 868 20 19"/><view id="icon-mail-view-light" viewBox="0 897 17 13"/><view id="icon-mail-view-black" viewBox="0 920 17 13"/><view id="icon-mail-view-white" viewBox="0 943 17 13"/><view id="icon-menu-view-light" viewBox="0 966 50 18"/><view id="icon-menu-view-black" viewBox="0 994 50 18"/><view id="icon-menu-view-white" viewBox="0 1022 50 18"/><view id="icon-pdf-view-light" viewBox="0 1050 24 30"/><view id="icon-pdf-view-black" viewBox="0 1090 24 30"/><view id="icon-pdf-view-white" viewBox="0 1130 24 30"/><view id="icon-phone-lined-view-light" viewBox="0 1170 20 21"/><view id="icon-phone-lined-view-black" viewBox="0 1201 20 21"/><view id="icon-phone-lined-view-white" viewBox="0 1232 20 21"/><view id="icon-phone-view-light" viewBox="0 1263 18 18"/><view id="icon-phone-view-black" viewBox="0 1291 18 18"/><view id="icon-phone-view-white" viewBox="0 1319 18 18"/><view id="icon-star-view-light" viewBox="0 1347 14 15"/><view id="icon-star-view-black" viewBox="0 1372 14 15"/><view id="icon-star-view-white" viewBox="0 1397 14 15"/><view id="icon-tgm-view-light" viewBox="0 1422 16 15"/><view id="icon-tgm-view-black" viewBox="0 1447 16 15"/><view id="icon-tgm-view-white" viewBox="0 1472 16 15"/><view id="icon-timer-view-light" viewBox="0 1497 46 46"/><view id="icon-timer-view-black" viewBox="0 1553 46 46"/><view id="icon-timer-view-white" viewBox="0 1609 46 46"/><view id="icon-wapp-view-light" viewBox="0 1665 18 19"/><view id="icon-wapp-view-black" viewBox="0 1694 18 19"/><view id="icon-wapp-view-white" viewBox="0 1723 18 19"/> <use xlink:href="#icon-arr-down" x="0" y="0" width="25" height="13" style="fill:#ffe1b5"/><use xlink:href="#icon-arr-down" x="0" y="23" width="25" height="13" style="fill:#2d2d2d"/><use xlink:href="#icon-arr-down" x="0" y="46" width="25" height="13" style="fill:#ffffff"/><use xlink:href="#icon-arr-next" x="0" y="69" width="11.969" height="21" style="fill:#ffe1b5"/><use xlink:href="#icon-arr-next" x="0" y="100" width="11.969" height="21" style="fill:#2d2d2d"/><use xlink:href="#icon-arr-next" x="0" y="131" width="11.969" height="21" style="fill:#ffffff"/><use xlink:href="#icon-arr-prev" x="0" y="162" width="11.969" height="21" style="fill:#ffe1b5"/><use xlink:href="#icon-arr-prev" x="0" y="193" width="11.969" height="21" style="fill:#2d2d2d"/><use xlink:href="#icon-arr-prev" x="0" y="224" width="11.969" height="21" style="fill:#ffffff"/><use xlink:href="#icon-close" x="0" y="255" width="24" height="21" style="fill:#ffe1b5"/><use xlink:href="#icon-close" x="0" y="286" width="24" height="21" style="fill:#2d2d2d"/><use xlink:href="#icon-close" x="0" y="317" width="24" height="21" style="fill:#ffffff"/><use xlink:href="#icon-crown" x="0" y="348" width="49" height="49" style="fill:#ffe1b5"/><use xlink:href="#icon-crown" x="0" y="407" width="49" height="49" style="fill:#2d2d2d"/><use xlink:href="#icon-crown" x="0" y="466" width="49" height="49" style="fill:#ffffff"/><use xlink:href="#icon-enter" x="0" y="525" width="20" height="26" style="fill:#ffe1b5"/><use xlink:href="#icon-enter" x="0" y="561" width="20" height="26" style="fill:#2d2d2d"/><use xlink:href="#icon-enter" x="0" y="597" width="20" height="26" style="fill:#ffffff"/><use xlink:href="#icon-gewel" x="0" y="633" width="49" height="49" style="fill:#ffe1b5"/><use xlink:href="#icon-gewel" x="0" y="692" width="49" height="49" style="fill:#2d2d2d"/><use xlink:href="#icon-gewel" x="0" y="751" width="49" height="49" style="fill:#ffffff"/><use xlink:href="#icon-inst" x="0" y="810" width="20" height="19" style="fill:#ffe1b5"/><use xlink:href="#icon-inst" x="0" y="839" width="20" height="19" style="fill:#2d2d2d"/><use xlink:href="#icon-inst" x="0" y="868" width="20" height="19" style="fill:#ffffff"/><use xlink:href="#icon-mail" x="0" y="897" width="17" height="13" style="fill:#ffe1b5"/><use xlink:href="#icon-mail" x="0" y="920" width="17" height="13" style="fill:#2d2d2d"/><use xlink:href="#icon-mail" x="0" y="943" width="17" height="13" style="fill:#ffffff"/><use xlink:href="#icon-menu" x="0" y="966" width="50" height="18" style="fill:#ffe1b5"/><use xlink:href="#icon-menu" x="0" y="994" width="50" height="18" style="fill:#2d2d2d"/><use xlink:href="#icon-menu" x="0" y="1022" width="50" height="18" style="fill:#ffffff"/><use xlink:href="#icon-pdf" x="0" y="1050" width="24" height="30" style="fill:#ffe1b5"/><use xlink:href="#icon-pdf" x="0" y="1090" width="24" height="30" style="fill:#2d2d2d"/><use xlink:href="#icon-pdf" x="0" y="1130" width="24" height="30" style="fill:#ffffff"/><use xlink:href="#icon-phone-lined" x="0" y="1170" width="20" height="21" style="fill:#ffe1b5"/><use xlink:href="#icon-phone-lined" x="0" y="1201" width="20" height="21" style="fill:#2d2d2d"/><use xlink:href="#icon-phone-lined" x="0" y="1232" width="20" height="21" style="fill:#ffffff"/><use xlink:href="#icon-phone" x="0" y="1263" width="18" height="18" style="fill:#ffe1b5"/><use xlink:href="#icon-phone" x="0" y="1291" width="18" height="18" style="fill:#2d2d2d"/><use xlink:href="#icon-phone" x="0" y="1319" width="18" height="18" style="fill:#ffffff"/><use xlink:href="#icon-star" x="0" y="1347" width="14" height="15" style="fill:#ffe1b5"/><use xlink:href="#icon-star" x="0" y="1372" width="14" height="15" style="fill:#2d2d2d"/><use xlink:href="#icon-star" x="0" y="1397" width="14" height="15" style="fill:#ffffff"/><use xlink:href="#icon-tgm" x="0" y="1422" width="16" height="15" style="fill:#ffe1b5"/><use xlink:href="#icon-tgm" x="0" y="1447" width="16" height="15" style="fill:#2d2d2d"/><use xlink:href="#icon-tgm" x="0" y="1472" width="16" height="15" style="fill:#ffffff"/><use xlink:href="#icon-timer" x="0" y="1497" width="46" height="46" style="fill:#ffe1b5"/><use xlink:href="#icon-timer" x="0" y="1553" width="46" height="46" style="fill:#2d2d2d"/><use xlink:href="#icon-timer" x="0" y="1609" width="46" height="46" style="fill:#ffffff"/><use xlink:href="#icon-wapp" x="0" y="1665" width="18" height="19" style="fill:#ffe1b5"/><use xlink:href="#icon-wapp" x="0" y="1694" width="18" height="19" style="fill:#2d2d2d"/><use xlink:href="#icon-wapp" x="0" y="1723" width="18" height="19" style="fill:#ffffff"/></svg>