<svg width="120" height="51" viewBox="0 0 120 51" fill="none" xmlns="http://www.w3.org/2000/svg">
<path d="M56.5259 36.9024C56.5259 36.9487 56.5105 37.0259 56.495 37.134C56.4796 37.2421 56.4641 37.3656 56.4641 37.5046C56.4487 37.5046 56.4178 37.5046 56.4024 37.5046C56.3869 37.5046 56.3561 37.5046 56.3406 37.5046C55.7848 37.5046 55.2907 37.4428 54.8429 37.3039C54.4106 37.1649 54.04 36.9642 53.7621 36.7017C53.5614 36.5164 53.3915 36.2848 53.2834 36.0378C53.1599 35.7753 53.0981 35.4819 53.0981 35.1577C53.0981 34.8489 53.1599 34.5864 53.268 34.3393C53.3915 34.0923 53.5459 33.8761 53.7312 33.6908C54.0091 33.4283 54.3643 33.2276 54.812 33.0732C55.2598 32.9188 55.7384 32.8571 56.2325 32.8571H56.3097H56.3869C56.3869 32.9188 56.4024 32.996 56.4024 33.1041C56.4178 33.2122 56.4178 33.3357 56.4333 33.4592C56.4178 33.4592 56.3869 33.4592 56.3715 33.4592C56.3561 33.4592 56.3252 33.4592 56.3097 33.4592C56.0473 33.4592 55.7693 33.4901 55.476 33.5519C55.1826 33.6136 54.9201 33.6908 54.7039 33.8144C54.426 33.9688 54.1944 34.1695 54.04 34.4011C53.8856 34.6327 53.8084 34.8952 53.8084 35.1885C53.8084 35.4819 53.8856 35.7444 54.0246 35.976C54.1635 36.2076 54.3797 36.4083 54.6731 36.5627C54.9047 36.6863 55.1826 36.7789 55.476 36.8407C55.7693 36.9024 56.0627 36.9333 56.3406 36.9333H56.4178C56.4487 36.9024 56.495 36.9024 56.5259 36.9024Z" fill="#F4F4F4"/>
<path d="M60.741 35.6981C60.741 35.9605 60.6947 36.223 60.6021 36.4546C60.5094 36.7017 60.3705 36.9024 60.1852 37.0723C60.0308 37.2112 59.8609 37.3347 59.6602 37.3965C59.4749 37.4737 59.2588 37.5046 59.0272 37.5046C58.7956 37.5046 58.5948 37.4737 58.3941 37.3965C58.1934 37.3193 58.0235 37.2112 57.8691 37.0723C57.6993 36.9024 57.5603 36.7017 57.4523 36.4546C57.3596 36.2076 57.2979 35.9451 57.2979 35.6826C57.2979 35.4201 57.3442 35.1731 57.4214 34.9569C57.4986 34.7408 57.6375 34.54 57.8074 34.3702C57.9618 34.2158 58.1471 34.0923 58.3478 33.9996C58.5485 33.907 58.7801 33.8761 59.0117 33.8761C59.2588 33.8761 59.4749 33.9224 59.6757 33.9996C59.8764 34.0768 60.0462 34.2003 60.2006 34.3548C60.3859 34.54 60.5094 34.7408 60.6021 34.9569C60.6947 35.1885 60.741 35.4356 60.741 35.6981ZM60.0617 35.7289C60.0617 35.5282 60.0308 35.3275 59.969 35.1422C59.9073 34.9569 59.7992 34.7871 59.6602 34.6636C59.583 34.5864 59.4749 34.5246 59.3669 34.4783C59.2588 34.432 59.1353 34.4165 59.0117 34.4165C58.8728 34.4165 58.7338 34.4474 58.6257 34.4937C58.5176 34.54 58.4096 34.6172 58.3169 34.7099C58.2088 34.8334 58.1162 34.9724 58.0544 35.1576C57.9927 35.3429 57.9618 35.5282 57.9618 35.7135C57.9618 35.9297 57.9927 36.1304 58.0544 36.3157C58.1162 36.501 58.2243 36.6554 58.3787 36.7943C58.4559 36.8715 58.5485 36.9333 58.6566 36.9642C58.7647 36.995 58.8728 37.0259 58.9963 37.0259C59.1353 37.0259 59.2588 36.995 59.3669 36.9487C59.4904 36.9024 59.583 36.8406 59.6757 36.748C59.7992 36.6245 59.8918 36.4701 59.9536 36.3002C60.0308 36.0995 60.0617 35.9142 60.0617 35.7289Z" fill="#F4F4F4"/>
<path d="M64.879 37.4428H64.2151C64.2151 37.3811 64.2151 37.1803 64.2305 36.8406C64.2305 36.501 64.2305 36.2848 64.2305 36.1767C64.2305 36.0532 64.2305 35.8833 64.2305 35.6672C64.2305 35.4356 64.2305 35.2812 64.2305 35.1731C64.2305 34.926 64.1842 34.7408 64.0916 34.6327C63.9989 34.5246 63.86 34.4628 63.6438 34.4628C63.5048 34.4628 63.3504 34.4937 63.1497 34.5709C62.9644 34.6481 62.7637 34.7408 62.5784 34.8643V35.2657V35.9297C62.5784 36.1922 62.5784 36.501 62.5939 36.8715C62.5939 37.2421 62.6093 37.4274 62.6093 37.4583H61.9454C61.9454 37.4274 61.9454 37.2884 61.9454 37.0259C61.9454 36.7634 61.9454 36.3774 61.9454 35.8525C61.9454 35.6054 61.9454 35.3121 61.9454 35.0032C61.9454 34.679 61.9454 34.3548 61.9299 33.9996H62.5939V34.3702C62.8872 34.2003 63.1497 34.0768 63.3659 34.0151C63.582 33.9379 63.7673 33.907 63.9217 33.907C64.2151 33.907 64.4621 33.9996 64.632 34.1849C64.8173 34.3702 64.8945 34.6172 64.8945 34.9415V35.6672V36.1613C64.8945 36.3774 64.8945 36.6245 64.9099 36.9333C64.879 37.2421 64.879 37.4119 64.879 37.4428Z" fill="#F4F4F4"/>
<path d="M68.6928 36.9024L68.6311 37.4583C68.6156 37.4583 68.5848 37.4583 68.5384 37.4583C68.4921 37.4583 68.4612 37.4583 68.4304 37.4583C68.1061 37.4583 67.8127 37.4274 67.5503 37.3656C67.2878 37.3039 67.0562 37.2112 66.84 37.1031C66.5621 36.9487 66.3614 36.748 66.2069 36.5164C66.0525 36.2694 65.9753 35.9914 65.9753 35.6981C65.9753 35.4201 66.0525 35.1731 66.1915 34.9415C66.3305 34.7099 66.5158 34.5246 66.7474 34.3856C66.9635 34.2467 67.2106 34.1386 67.5039 34.0768C67.7973 33.9996 68.1061 33.9688 68.4304 33.9688H68.5076C68.5076 33.9688 68.5539 33.9688 68.5693 33.9688L68.6156 34.5246C68.6002 34.5246 68.5848 34.5246 68.5539 34.5246C68.523 34.5246 68.5076 34.5246 68.4921 34.5246C68.2605 34.5246 68.0598 34.54 67.8745 34.5709C67.7047 34.6018 67.5348 34.6481 67.365 34.7099C67.1488 34.7871 66.9635 34.9261 66.84 35.1113C66.7165 35.2966 66.6393 35.4973 66.6393 35.6981C66.6393 35.9451 66.701 36.1613 66.8246 36.3311C66.9481 36.501 67.1025 36.6245 67.3186 36.7171C67.4731 36.7943 67.6429 36.8407 67.8436 36.8715C68.0443 36.9024 68.2451 36.9179 68.4458 36.9179H68.5693C68.5693 36.9179 68.6774 36.9024 68.6928 36.9024Z" fill="#F4F4F4"/>
<path d="M70.5458 33.3356H69.8201V32.6871H70.5458V33.3356ZM70.5149 37.4428H69.8509C69.8509 37.381 69.8509 37.1648 69.8664 36.7634C69.8664 36.3619 69.8664 36.0222 69.8664 35.7443C69.8664 35.4973 69.8664 35.2348 69.8664 34.9569C69.8664 34.6789 69.8664 34.3393 69.8509 33.9687H70.5149C70.5149 34.2929 70.4994 34.6017 70.4994 34.8797V35.6671C70.4994 36.1921 70.4994 36.609 70.5149 36.9178V37.4428Z" fill="#F4F4F4"/>
<path d="M74.7917 35.6054H72.3522C72.3522 35.837 72.3985 36.0377 72.5066 36.223C72.5992 36.4083 72.7536 36.5627 72.9698 36.6862C73.1087 36.7634 73.2477 36.8252 73.4175 36.8561C73.5874 36.9024 73.7727 36.9178 74.0043 36.9178C74.1432 36.9178 74.2668 36.9178 74.3749 36.9024C74.4829 36.9024 74.5447 36.887 74.5756 36.887L74.4984 37.4119C74.4675 37.4119 74.4057 37.4119 74.2976 37.4274C74.1896 37.4274 74.066 37.4428 73.9271 37.4428C73.5565 37.4428 73.2323 37.3965 72.9389 37.3039C72.661 37.2112 72.4294 37.0877 72.2441 36.9178C72.0897 36.7789 71.9507 36.5936 71.8426 36.3774C71.7346 36.1613 71.6882 35.9142 71.6882 35.6517C71.6882 35.3893 71.7346 35.1576 71.8118 34.9415C71.889 34.7253 72.0125 34.54 72.1669 34.3548C72.3058 34.2003 72.4757 34.0768 72.6919 33.9996C72.8926 33.9224 73.1087 33.8761 73.3249 33.8761C73.5411 33.8761 73.7418 33.907 73.9116 33.9687C74.0815 34.0305 74.2359 34.1386 74.3594 34.2621C74.4984 34.4165 74.6065 34.6018 74.6837 34.818C74.7609 35.0341 74.7917 35.3121 74.7917 35.6054ZM74.1432 35.204C74.1124 34.9415 74.0197 34.7253 73.8808 34.5709C73.7418 34.4165 73.5411 34.3393 73.294 34.3393C73.047 34.3393 72.8463 34.4165 72.6919 34.5709C72.5375 34.7253 72.4294 34.9415 72.3676 35.204H74.1432Z" fill="#F4F4F4"/>
<path d="M78.0651 34.4628C77.9261 34.5091 77.7254 34.5709 77.4784 34.6635C77.2313 34.7561 76.9225 34.8797 76.5828 35.0495V35.3892V35.9296C76.5828 36.1921 76.5828 36.5009 76.5983 36.856C76.5983 37.2112 76.6137 37.4119 76.6137 37.4582H75.9498C75.9498 37.4119 75.9498 37.2729 75.9498 37.0413C75.9498 36.8097 75.9498 36.4391 75.9498 35.9296C75.9498 35.7134 75.9498 35.4201 75.9498 35.0649C75.9498 34.6944 75.9498 34.3392 75.9343 33.9996H76.5828V34.5091C76.8299 34.3701 77.0769 34.2312 77.324 34.1231C77.571 34.015 77.7717 33.9378 77.9261 33.8915L78.0651 34.4628Z" fill="#F4F4F4"/>
<path d="M81.709 33.9379V34.6018V35.7135V36.4546V37.1958C81.709 37.5818 81.6473 37.8906 81.5083 38.1068C81.3694 38.3229 81.1841 38.5082 80.9216 38.6472C80.7054 38.7552 80.4429 38.8479 80.1341 38.8942C79.8253 38.956 79.4856 38.9869 79.0996 38.9714L79.0379 38.4464C79.3003 38.4464 79.5474 38.431 79.7636 38.4001C79.9797 38.3692 80.1804 38.3384 80.3503 38.2766C80.6128 38.184 80.7826 38.0604 80.8907 37.906C80.9988 37.7516 81.0451 37.5663 81.0451 37.3502C81.0142 37.3502 80.9988 37.3502 80.9679 37.3502C80.937 37.3502 80.9216 37.3502 80.8907 37.3502C80.6282 37.3502 80.3503 37.3193 80.0724 37.2575C79.7944 37.1958 79.5474 37.0877 79.3467 36.9642C79.1305 36.8252 78.9761 36.6399 78.8371 36.4238C78.6982 36.2076 78.6519 35.9297 78.6519 35.6209C78.6519 35.2966 78.7445 35.0187 78.9143 34.7716C79.0842 34.5246 79.3312 34.3393 79.64 34.1849C79.8562 34.0923 80.0878 34.0151 80.3349 33.9687C80.5973 33.9224 80.9061 33.907 81.2613 33.907H81.4774C81.5546 33.9379 81.6318 33.9379 81.709 33.9379ZM81.0606 35.7444C81.0606 35.59 81.0606 35.4047 81.0606 35.1731C81.0606 34.9415 81.0605 34.7099 81.0451 34.4628C81.0297 34.4628 81.0142 34.4628 80.9988 34.4628C80.9833 34.4628 80.9679 34.4628 80.9525 34.4628C80.7517 34.4628 80.5819 34.4783 80.4429 34.4937C80.2885 34.5246 80.1341 34.5709 79.9797 34.6327C79.7636 34.7253 79.5937 34.8643 79.4856 35.0496C79.3776 35.2349 79.3158 35.4356 79.3158 35.6672C79.3158 35.8988 79.3776 36.0995 79.4856 36.2694C79.5937 36.4392 79.7481 36.5627 79.9488 36.6554C80.0878 36.7171 80.2268 36.7634 80.3966 36.8098C80.5665 36.8561 80.7517 36.8715 80.937 36.8715H80.9988H81.0451C81.0451 36.8406 81.0451 36.7171 81.0451 36.501C81.0451 36.2848 81.0606 36.0377 81.0606 35.7444Z" fill="#F4F4F4"/>
<path d="M85.9551 35.6054H83.5155C83.5155 35.837 83.5618 36.0377 83.6699 36.223C83.7625 36.4083 83.9169 36.5627 84.1331 36.6862C84.2721 36.7634 84.411 36.8252 84.5809 36.8561C84.7507 36.9024 84.936 36.9178 85.1676 36.9178C85.3066 36.9178 85.4301 36.9178 85.5382 36.9024C85.6463 36.9024 85.708 36.887 85.7389 36.887L85.6617 37.4119C85.6308 37.4119 85.5691 37.4119 85.461 37.4274C85.3529 37.4274 85.2294 37.4428 85.0904 37.4428C84.7198 37.4428 84.3956 37.3965 84.1022 37.3039C83.8243 37.2112 83.5927 37.0877 83.4074 36.9178C83.253 36.7789 83.114 36.5936 83.006 36.3774C82.8979 36.1613 82.8516 35.9142 82.8516 35.6517C82.8516 35.3893 82.8979 35.1576 82.9751 34.9415C83.0523 34.7253 83.1758 34.54 83.3302 34.3548C83.4692 34.2003 83.639 34.0768 83.8552 33.9996C84.0559 33.9224 84.2721 33.8761 84.4882 33.8761C84.7044 33.8761 84.9051 33.907 85.075 33.9687C85.2448 34.0305 85.3992 34.1386 85.5227 34.2621C85.6617 34.4165 85.7698 34.6018 85.847 34.818C85.9242 35.0341 85.9396 35.3121 85.9551 35.6054ZM85.3066 35.204C85.2757 34.9415 85.1831 34.7253 85.0441 34.5709C84.9051 34.4165 84.7044 34.3393 84.4574 34.3393C84.2103 34.3393 84.0096 34.4165 83.8552 34.5709C83.7008 34.7253 83.5927 34.9415 83.5309 35.204H85.3066Z" fill="#F4F4F4"/>
<path d="M93.5673 37.0722L93.1967 37.5354L92.085 36.6862C91.7916 36.995 91.5292 37.2112 91.2667 37.3501C91.0042 37.4891 90.7417 37.5508 90.4483 37.5508C90.0006 37.5508 89.63 37.4273 89.3366 37.1957C89.0587 36.9487 88.9043 36.6399 88.9043 36.2693C88.9043 36.0068 88.9815 35.7443 89.1513 35.5127C89.3057 35.2811 89.5065 35.065 89.7381 34.8951V34.8797C89.5682 34.7407 89.4447 34.6017 89.3521 34.4319C89.2594 34.2775 89.2131 34.0922 89.2131 33.9069C89.2131 33.5827 89.3521 33.3048 89.6454 33.0731C89.9388 32.857 90.263 32.7489 90.6491 32.7489C91.0659 32.7489 91.4056 32.857 91.6527 33.0577C91.9152 33.2739 92.0387 33.5518 92.0387 33.8915C92.0387 34.1385 91.9615 34.3701 91.8225 34.5863C91.6836 34.8025 91.4674 35.0495 91.1586 35.2966V35.312C91.2975 35.4201 91.4519 35.5436 91.6218 35.6826C91.7916 35.8215 91.9152 35.9142 91.9769 35.9605C92.2085 35.6517 92.4247 35.3429 92.61 35.0186C92.8107 34.7098 92.9033 34.5245 92.9342 34.5091L93.4438 34.8488C93.4129 34.9105 93.2739 35.0958 93.0423 35.4355C92.8107 35.7752 92.61 36.0377 92.4247 36.2539L93.5673 37.0722ZM91.6527 36.3774C91.4674 36.223 91.2358 36.0531 90.9733 35.837C90.7108 35.6208 90.4329 35.4046 90.1395 35.173C89.9234 35.3892 89.769 35.5745 89.7072 35.7289C89.6454 35.8833 89.5991 36.0531 89.5991 36.223C89.5991 36.47 89.6918 36.6553 89.8462 36.7943C90.016 36.9332 90.2167 37.0104 90.4638 37.0104C90.7108 37.0104 90.927 36.9487 91.1123 36.8406C91.313 36.7325 91.4983 36.5781 91.6527 36.3774ZM91.4056 33.9687C91.4056 33.7525 91.3439 33.5672 91.2049 33.4437C91.0659 33.3048 90.8807 33.243 90.6491 33.243C90.4329 33.243 90.2476 33.3048 90.1086 33.4283C89.9542 33.5518 89.8925 33.7216 89.8925 33.9224C89.8925 34.0922 89.9697 34.2466 90.1241 34.4165C90.2785 34.5863 90.5101 34.787 90.8189 35.0186C91.0351 34.8333 91.1895 34.6481 91.2821 34.4782C91.3747 34.3084 91.4056 34.1385 91.4056 33.9687Z" fill="#F4F4F4"/>
<path d="M99.1721 36.1304C99.1721 36.362 99.1104 36.5782 99.0023 36.7635C98.8788 36.9487 98.7244 37.0877 98.5391 37.1958C98.3538 37.3039 98.1531 37.3811 97.906 37.4274C97.659 37.4737 97.4119 37.5046 97.134 37.5046C96.9796 37.5046 96.8098 37.5046 96.6554 37.4892C96.501 37.4737 96.3929 37.4737 96.362 37.4737L96.3157 36.8715C96.3466 36.8715 96.4392 36.887 96.5936 36.9024C96.748 36.9179 96.9178 36.9179 97.1031 36.9179C97.2267 36.9179 97.3656 36.9024 97.5509 36.8715C97.7362 36.8407 97.8751 36.8098 97.9832 36.7635C98.1222 36.7017 98.2148 36.6245 98.292 36.5473C98.3538 36.4547 98.4001 36.3466 98.4001 36.223C98.4001 36.0841 98.3692 35.9606 98.292 35.8679C98.2148 35.7753 98.1068 35.6672 97.9369 35.5746C97.8288 35.5128 97.6899 35.451 97.52 35.3738C97.3502 35.2966 97.1958 35.2194 97.0722 35.1268C96.8406 34.9878 96.6708 34.8334 96.5782 34.6636C96.4855 34.4937 96.4238 34.3084 96.4238 34.1077C96.4238 33.907 96.4701 33.7372 96.5473 33.5827C96.6399 33.4283 96.748 33.3048 96.887 33.1967C97.0414 33.0732 97.2421 32.9806 97.4737 32.9188C97.7053 32.8571 97.9832 32.8262 98.2766 32.8262C98.431 32.8262 98.5854 32.8262 98.7244 32.8416C98.8633 32.8571 98.956 32.8571 98.9714 32.8571L99.0332 33.4592C99.0023 33.4592 98.9251 33.4438 98.7861 33.4438C98.6472 33.4283 98.4773 33.4283 98.2612 33.4283C98.1376 33.4283 97.9987 33.4438 97.8751 33.4592C97.7516 33.4901 97.6281 33.521 97.52 33.5827C97.4274 33.6291 97.3502 33.6908 97.2884 33.7835C97.2267 33.8761 97.1958 33.9688 97.1958 34.0923C97.1958 34.2004 97.2266 34.293 97.3038 34.4011C97.3656 34.4937 97.4891 34.6018 97.6744 34.6945C97.7671 34.7562 97.8906 34.818 98.045 34.8797C98.1994 34.9569 98.3384 35.0341 98.4928 35.1113C98.7089 35.2503 98.8788 35.4047 99.0023 35.5746C99.1104 35.7135 99.1721 35.9142 99.1721 36.1304Z" fill="#F4F4F4"/>
<path d="M103.233 35.6054H100.793C100.793 35.837 100.84 36.0377 100.948 36.223C101.04 36.4083 101.195 36.5627 101.411 36.6862C101.55 36.7634 101.689 36.8252 101.859 36.8561C102.029 36.9024 102.214 36.9178 102.445 36.9178C102.584 36.9178 102.708 36.9178 102.816 36.9024C102.924 36.9024 102.986 36.887 103.017 36.887L102.94 37.4119C102.909 37.4119 102.847 37.4119 102.739 37.4274C102.631 37.4274 102.507 37.4428 102.368 37.4428C101.998 37.4428 101.673 37.3965 101.38 37.3039C101.102 37.2112 100.871 37.0877 100.685 36.9178C100.531 36.7789 100.392 36.5936 100.284 36.3774C100.176 36.1613 100.129 35.9142 100.129 35.6517C100.129 35.3893 100.176 35.1576 100.253 34.9415C100.33 34.7253 100.454 34.54 100.608 34.3548C100.747 34.2003 100.917 34.0768 101.133 33.9996C101.334 33.9224 101.55 33.8761 101.766 33.8761C101.982 33.8761 102.183 33.907 102.353 33.9687C102.523 34.0305 102.677 34.1386 102.801 34.2621C102.94 34.4165 103.048 34.6018 103.125 34.818C103.202 35.0341 103.233 35.3121 103.233 35.6054ZM102.584 35.204C102.554 34.9415 102.461 34.7253 102.322 34.5709C102.183 34.4165 101.982 34.3393 101.735 34.3393C101.488 34.3393 101.287 34.4165 101.133 34.5709C100.979 34.7253 100.871 34.9415 100.809 35.204H102.584Z" fill="#F4F4F4"/>
<path d="M106.506 34.4628C106.367 34.5091 106.167 34.5709 105.92 34.6635C105.672 34.7561 105.364 34.8797 105.024 35.0495V35.3892V35.9296C105.024 36.1921 105.024 36.5009 105.039 36.856C105.039 37.2112 105.055 37.4119 105.055 37.4582H104.391C104.391 37.4119 104.391 37.2729 104.391 37.0413C104.391 36.8097 104.391 36.4391 104.391 35.9296C104.391 35.7134 104.391 35.4201 104.391 35.0649C104.391 34.6944 104.391 34.3392 104.375 33.9996H105.024V34.5091C105.271 34.3701 105.518 34.2312 105.765 34.1231C106.012 34.015 106.213 33.9378 106.367 33.8915L106.506 34.4628Z" fill="#F4F4F4"/>
<path d="M110.428 34.1231C110.119 34.8179 109.81 35.5282 109.502 36.2539C109.177 36.9795 109.008 37.381 108.992 37.4428H108.436C108.405 37.381 108.236 36.995 107.942 36.3002C107.633 35.6054 107.309 34.8951 106.985 34.1385L107.618 33.8915L108.745 36.609H108.761L109.841 33.9069L110.428 34.1231Z" fill="#F4F4F4"/>
<path d="M112.188 33.3356H111.463V32.6871H112.188V33.3356ZM112.157 37.4428H111.494C111.494 37.381 111.494 37.1648 111.509 36.7634C111.509 36.3619 111.509 36.0222 111.509 35.7443C111.509 35.4973 111.509 35.2348 111.509 34.9569C111.509 34.6789 111.509 34.3393 111.494 33.9687H112.157C112.157 34.2929 112.142 34.6017 112.142 34.8797V35.6671C112.142 36.1921 112.142 36.609 112.157 36.9178V37.4428Z" fill="#F4F4F4"/>
<path d="M116.018 36.9024L115.956 37.4583C115.94 37.4583 115.909 37.4583 115.863 37.4583C115.817 37.4583 115.786 37.4583 115.755 37.4583C115.431 37.4583 115.137 37.4274 114.875 37.3656C114.612 37.3039 114.381 37.2112 114.165 37.1031C113.887 36.9487 113.686 36.748 113.532 36.5164C113.377 36.2694 113.3 35.9914 113.3 35.6981C113.3 35.4201 113.377 35.1731 113.516 34.9415C113.655 34.7099 113.84 34.5246 114.072 34.3856C114.288 34.2467 114.535 34.1386 114.829 34.0768C115.122 33.9996 115.431 33.9688 115.755 33.9688H115.832C115.832 33.9688 115.879 33.9688 115.894 33.9688L115.94 34.5246C115.925 34.5246 115.909 34.5246 115.879 34.5246C115.848 34.5246 115.832 34.5246 115.817 34.5246C115.585 34.5246 115.384 34.54 115.199 34.5709C115.029 34.6018 114.86 34.6481 114.69 34.7099C114.474 34.7871 114.288 34.9261 114.165 35.1113C114.041 35.2966 113.964 35.4973 113.964 35.6981C113.964 35.9451 114.026 36.1613 114.149 36.3311C114.273 36.501 114.427 36.6245 114.643 36.7171C114.798 36.7943 114.968 36.8407 115.168 36.8715C115.369 36.9024 115.57 36.9179 115.771 36.9179H115.894C115.894 36.9179 116.002 36.9024 116.018 36.9024Z" fill="#F4F4F4"/>
<path d="M119.924 35.6054H117.484C117.484 35.837 117.531 36.0377 117.639 36.223C117.731 36.4083 117.886 36.5627 118.102 36.6862C118.241 36.7634 118.38 36.8252 118.55 36.8561C118.719 36.9024 118.905 36.9178 119.136 36.9178C119.275 36.9178 119.399 36.9178 119.507 36.9024C119.615 36.9024 119.677 36.887 119.708 36.887L119.63 37.4119C119.6 37.4119 119.538 37.4119 119.43 37.4274C119.322 37.4274 119.198 37.4428 119.059 37.4428C118.689 37.4428 118.364 37.3965 118.071 37.3039C117.793 37.2112 117.561 37.0877 117.376 36.9178C117.222 36.7789 117.083 36.5936 116.975 36.3774C116.867 36.1613 116.82 35.9142 116.82 35.6517C116.82 35.3893 116.867 35.1576 116.944 34.9415C117.021 34.7253 117.145 34.54 117.299 34.3548C117.438 34.2003 117.608 34.0768 117.824 33.9996C118.025 33.9224 118.241 33.8761 118.457 33.8761C118.673 33.8761 118.874 33.907 119.044 33.9687C119.214 34.0305 119.368 34.1386 119.491 34.2621C119.63 34.4165 119.739 34.6018 119.816 34.818C119.878 35.0496 119.924 35.3121 119.924 35.6054ZM119.275 35.204C119.244 34.9415 119.152 34.7253 119.013 34.5709C118.874 34.4165 118.673 34.3393 118.426 34.3393C118.179 34.3393 117.978 34.4165 117.824 34.5709C117.67 34.7253 117.561 34.9415 117.5 35.204H119.275Z" fill="#F4F4F4"/>
<path d="M63.5357 12.0897V13.4485H55.1208V19.0533H62.3468V20.4121H55.1208V28.4102H52.99V12.0897H63.5357Z" fill="#F4F4F4"/>
<path d="M70.5611 12.0897V28.4102H68.4458V12.0897H70.5611Z" fill="#F4F4F4"/>
<path d="M78.4203 21.1996H79.4548C79.8871 21.1996 80.2577 21.2459 80.5356 21.3231C80.829 21.4003 81.0914 21.5392 81.323 21.7245C81.5546 21.9098 81.7708 22.1569 81.9715 22.4502C82.1723 22.7436 82.4193 23.1142 82.6972 23.5465L84.5501 26.2794C84.7817 26.6346 85.0133 26.9588 85.2295 27.2522C85.4456 27.5455 85.6927 27.7926 85.9551 28.0087C86.2176 28.2249 86.511 28.3793 86.8507 28.5028C87.1904 28.6264 87.5764 28.6881 88.055 28.6881C88.3947 28.6881 88.6726 28.6727 88.8888 28.6418C89.105 28.6109 89.3211 28.5337 89.5373 28.4102V27.5455C89.4601 27.561 89.3829 27.5764 89.3057 27.5764C89.2285 27.5919 89.1513 27.5919 89.0741 27.5919C88.7498 27.5919 88.4565 27.5455 88.2094 27.4529C87.9624 27.3603 87.7308 27.2213 87.5146 27.0514C87.2985 26.8662 87.0823 26.65 86.8816 26.4029C86.6808 26.1405 86.4647 25.8625 86.2639 25.5229C85.6155 24.581 85.1214 23.8244 84.7662 23.2531C84.4111 22.6818 84.1332 22.2495 83.917 21.9407C83.7009 21.6319 83.531 21.4003 83.4075 21.2613C83.2685 21.1224 83.1141 20.9988 82.9288 20.9062L82.6972 20.7827V20.69C83.4384 20.6437 84.0869 20.4739 84.6118 20.1959C85.1522 19.918 85.5846 19.5629 85.9243 19.146C86.264 18.7291 86.511 18.2659 86.6654 17.7872C86.8198 17.2931 86.897 16.8145 86.897 16.3513C86.897 15.9344 86.8198 15.4712 86.65 14.9771C86.4801 14.483 86.2022 14.0198 85.8162 13.5874C85.4147 13.1551 84.8743 12.8 84.1949 12.5221C83.5156 12.2287 82.6509 12.0897 81.601 12.0897H76.3049V28.4102H78.4203V21.1996ZM78.4203 13.1088H80.7826C81.3694 13.1088 81.9098 13.2014 82.3884 13.3713C82.8671 13.5411 83.2685 13.7727 83.6237 14.0815C83.9633 14.3903 84.2258 14.7455 84.4111 15.1623C84.5964 15.5793 84.6736 16.0425 84.6736 16.5366C84.6736 16.9535 84.5964 17.3858 84.4266 17.8027C84.2567 18.235 84.0097 18.621 83.6854 18.9607C83.3612 19.3158 82.9597 19.5938 82.4811 19.8099C82.0024 20.0261 81.462 20.1342 80.829 20.1342H78.4203V13.1088Z" fill="#F4F4F4"/>
<path d="M93.1195 24.2876C93.1349 24.4884 93.1967 24.7972 93.3048 25.1677C93.4128 25.5537 93.629 25.9243 93.9378 26.2794C94.2466 26.6346 94.6944 26.9434 95.2966 27.2059C95.8833 27.4683 96.6708 27.5919 97.6589 27.5919C98.8942 27.5919 99.8669 27.3603 100.608 26.8971C101.349 26.4338 101.72 25.6927 101.72 24.6736C101.72 23.8707 101.488 23.2995 101.025 22.8208C100.562 22.3422 99.975 21.9253 99.2647 21.601C98.5545 21.2613 97.7979 20.968 96.9641 20.7055C96.1458 20.443 95.3738 20.1187 94.6635 19.7482C93.9533 19.3776 93.3665 18.9144 92.9033 18.3431C92.4401 17.7873 92.2085 17.0461 92.2085 16.1197C92.2085 15.4249 92.3475 14.7918 92.6408 14.2514C92.9342 13.711 93.3202 13.2632 93.8143 12.8927C94.3084 12.5375 94.8797 12.2596 95.5127 12.0743C96.1612 11.889 96.8406 11.7964 97.5509 11.7964C98.2302 11.7964 98.8942 11.8736 99.5272 12.0434C100.16 12.2133 100.716 12.4449 101.226 12.7691C101.72 13.0934 102.137 13.4794 102.461 13.9426C102.785 14.4058 103.001 14.9153 103.094 15.4866H101.504C101.38 14.5756 100.963 13.9735 100.253 13.5566C99.5427 13.1243 98.678 12.9081 97.6744 12.9081C97.0722 12.9081 96.5318 12.9853 96.0686 13.1243C95.6054 13.2787 95.2039 13.4639 94.8951 13.711C94.5709 13.958 94.3393 14.236 94.1694 14.5602C93.9996 14.8845 93.9224 15.2396 93.9224 15.6102C93.9224 16.2741 94.1694 16.7373 94.6481 17.1388C95.1267 17.5402 95.7289 17.8953 96.4546 18.2196C97.1803 18.5284 97.9677 18.8218 98.817 19.0997C99.6662 19.3776 100.454 19.7327 101.179 20.1342C101.905 20.5511 102.507 21.0606 102.986 21.6782C103.465 22.2958 103.712 23.0833 103.712 24.0406C103.712 24.7354 103.573 25.3839 103.295 25.9552C103.017 26.5265 102.615 27.0206 102.106 27.422C101.596 27.8235 100.979 28.1323 100.253 28.3484C99.5272 28.5646 98.7089 28.6727 97.8133 28.6727C96.9178 28.6727 96.0995 28.5646 95.3583 28.3639C94.6172 28.1477 93.9533 27.8544 93.4128 27.4838C92.857 27.0978 92.4247 26.6346 92.1004 26.0942C91.7762 25.5537 91.6063 24.9361 91.5754 24.2722H93.1195V24.2876Z" fill="#F4F4F4"/>
<path d="M111.555 28.4102V13.4485H105.302V12.0897H119.924V13.4485H113.671V28.4102H111.555Z" fill="#F4F4F4"/>
<path d="M0.0605469 -0.0617676V50.8759H41.1473V-0.0617676H0.0605469ZM1.37298 48.6216V2.19252L6.29844 7.11799V43.7425L1.37298 48.6216ZM33.8904 6.19157H7.25574L2.31484 1.25066H38.8622L33.8904 6.19157ZM14.4201 31.6372H26.3555V23.9171H14.4201V13.9117H26.7106V19.393H33.5352V43.2793H14.4201V31.6372ZM33.5044 18.0652H28.0539V12.5839H13.1076V25.2449H25.0276V30.3094H13.0922V43.2793H7.64175V7.51944H33.4889V18.0652H33.5044ZM14.173 44.6226L14.4201 44.6071H33.9367L38.8776 49.548H2.33028L7.33295 44.6226H14.173ZM34.8785 43.6653V7.08711L39.8195 2.19252V48.6062L34.8785 43.6653Z" fill="url(#paint0_linear_53_1709)"/>
<defs>
<linearGradient id="paint0_linear_53_1709" x1="0.0540774" y1="25.4018" x2="41.1379" y2="25.4018" gradientUnits="userSpaceOnUse">
<stop offset="5.2201e-07" stop-color="#C49447"/>
<stop offset="1" stop-color="#F2CC83"/>
</linearGradient>
</defs>
</svg>
