<svg width="91" height="37" viewBox="0 0 91 37" fill="none" xmlns="http://www.w3.org/2000/svg">
<path d="M4.76481 33.8822C4.76481 33.9445 4.74404 34.0483 4.72328 34.1937C4.70251 34.339 4.68175 34.5052 4.68175 34.6921C4.66098 34.6921 4.61945 34.6921 4.59868 34.6921C4.57791 34.6921 4.53638 34.6921 4.51561 34.6921C3.76801 34.6921 3.10348 34.609 2.50124 34.4221C1.91978 34.2352 1.42137 33.9652 1.04757 33.6122C0.777607 33.363 0.549172 33.0515 0.403805 32.7192C0.237671 32.3662 0.154602 31.9716 0.154602 31.5355C0.154602 31.1202 0.23767 30.7672 0.383037 30.4349C0.549171 30.1026 0.756838 29.8119 1.00604 29.5627C1.37984 29.2097 1.85747 28.9397 2.45971 28.732C3.06194 28.5243 3.70571 28.4413 4.37025 28.4413H4.47408H4.57791C4.57791 28.5244 4.59868 28.6282 4.59868 28.7735C4.61945 28.9189 4.61944 29.0851 4.64021 29.2512C4.61944 29.2512 4.57791 29.2512 4.55715 29.2512C4.53638 29.2512 4.49485 29.2512 4.47408 29.2512C4.12105 29.2512 3.74725 29.2927 3.35268 29.3758C2.95811 29.4589 2.60508 29.5627 2.31434 29.7288C1.94054 29.9365 1.62904 30.2065 1.42137 30.518C1.21371 30.8295 1.10987 31.1825 1.10987 31.5771C1.10987 31.9716 1.2137 32.3247 1.4006 32.6362C1.5875 32.9477 1.87824 33.2176 2.27281 33.4253C2.58431 33.5914 2.95811 33.716 3.35268 33.7991C3.74725 33.8822 4.14181 33.9237 4.51561 33.9237H4.61944C4.66098 33.8822 4.72328 33.8822 4.76481 33.8822Z" fill="#F4F4F4"/>
<path d="M10.4341 32.2625C10.4341 32.6155 10.3718 32.9686 10.2472 33.2801C10.1226 33.6123 9.93574 33.8823 9.68654 34.1107C9.47887 34.2976 9.25043 34.4638 8.98046 34.5468C8.73126 34.6507 8.44054 34.6922 8.12903 34.6922C7.81753 34.6922 7.54757 34.6507 7.2776 34.5468C7.00763 34.443 6.7792 34.2976 6.57153 34.1107C6.3431 33.8823 6.1562 33.6123 6.01083 33.2801C5.88623 32.9478 5.80316 32.5948 5.80316 32.2417C5.80316 31.8887 5.86546 31.5564 5.96929 31.2657C6.07313 30.9749 6.26003 30.705 6.48846 30.4765C6.69613 30.2689 6.94533 30.1027 7.21529 29.9781C7.48526 29.8535 7.79677 29.812 8.10827 29.812C8.44053 29.812 8.73127 29.8743 9.00123 29.9781C9.2712 30.082 9.49963 30.2481 9.7073 30.4558C9.9565 30.705 10.1226 30.9749 10.2472 31.2657C10.3718 31.5772 10.4341 31.9094 10.4341 32.2625ZM9.5204 32.304C9.5204 32.034 9.47887 31.7641 9.3958 31.5149C9.31273 31.2657 9.16736 31.0372 8.98046 30.8711C8.87663 30.7673 8.73127 30.6842 8.5859 30.6219C8.44053 30.5596 8.2744 30.5388 8.10827 30.5388C7.92137 30.5388 7.73447 30.5804 7.5891 30.6427C7.44373 30.705 7.29837 30.8088 7.17377 30.9334C7.0284 31.0995 6.9038 31.2864 6.82073 31.5356C6.73766 31.7848 6.69613 32.0341 6.69613 32.2833C6.69613 32.574 6.73766 32.844 6.82073 33.0932C6.9038 33.3424 7.04916 33.55 7.25683 33.7369C7.36066 33.8408 7.48526 33.9238 7.63063 33.9654C7.776 34.0069 7.92137 34.0484 8.0875 34.0484C8.2744 34.0484 8.44053 34.0069 8.5859 33.9446C8.75203 33.8823 8.87663 33.7992 9.00123 33.6746C9.16737 33.5085 9.29197 33.3008 9.37504 33.0724C9.47887 32.8024 9.5204 32.5532 9.5204 32.304Z" fill="#F4F4F4"/>
<path d="M15.9996 34.6091H15.1067C15.1067 34.526 15.1067 34.2561 15.1274 33.7992C15.1274 33.3423 15.1274 33.0516 15.1274 32.9062C15.1274 32.7401 15.1274 32.5117 15.1274 32.2209C15.1274 31.9094 15.1274 31.7018 15.1274 31.5564C15.1274 31.2241 15.0651 30.9749 14.9405 30.8296C14.8159 30.6842 14.629 30.6011 14.3383 30.6011C14.1514 30.6011 13.9437 30.6426 13.6738 30.7465C13.4246 30.8503 13.1546 30.9749 12.9054 31.1411V31.681V32.574C12.9054 32.927 12.9054 33.3423 12.9262 33.8407C12.9262 34.3391 12.9469 34.5883 12.9469 34.6299H12.054C12.054 34.5883 12.054 34.4014 12.054 34.0484C12.054 33.6954 12.054 33.1762 12.054 32.4701C12.054 32.1379 12.054 31.7433 12.054 31.3279C12.054 30.8918 12.054 30.4557 12.0332 29.9781H12.9262V30.4765C13.3207 30.2481 13.6738 30.0819 13.9645 29.9989C14.2552 29.895 14.5044 29.8535 14.7121 29.8535C15.1067 29.8535 15.4389 29.9781 15.6674 30.2273C15.9166 30.4765 16.0204 30.8088 16.0204 31.2449V32.2209V32.8855C16.0204 33.1762 16.0204 33.5085 16.0412 33.9238C15.9996 34.3391 15.9996 34.5676 15.9996 34.6091Z" fill="#F4F4F4"/>
<path d="M21.129 33.8823L21.0459 34.6299C21.0252 34.6299 20.9836 34.6299 20.9213 34.6299C20.859 34.6299 20.8175 34.6299 20.776 34.6299C20.3399 34.6299 19.9453 34.5884 19.5923 34.5053C19.2392 34.4223 18.9277 34.2977 18.637 34.1523C18.2632 33.9446 17.9932 33.6747 17.7856 33.3632C17.5779 33.0309 17.4741 32.6571 17.4741 32.2625C17.4741 31.8887 17.5779 31.5564 17.7648 31.2449C17.9517 30.9334 18.2009 30.6842 18.5124 30.4973C18.8031 30.3104 19.1354 30.1651 19.53 30.082C19.9245 29.9782 20.3399 29.9366 20.776 29.9366H20.8798C20.8798 29.9366 20.9421 29.9366 20.9629 29.9366L21.0252 30.6842C21.0044 30.6842 20.9836 30.6842 20.9421 30.6842C20.9006 30.6842 20.8798 30.6842 20.859 30.6842C20.5475 30.6842 20.2776 30.705 20.0284 30.7465C19.7999 30.7881 19.5715 30.8504 19.3431 30.9334C19.0523 31.0373 18.8031 31.2242 18.637 31.4734C18.4709 31.7226 18.367 31.9925 18.367 32.2625C18.367 32.5948 18.4501 32.8855 18.6162 33.114C18.7824 33.3424 18.99 33.5085 19.2808 33.6331C19.4884 33.737 19.7169 33.7993 19.9868 33.8408C20.2568 33.8823 20.5268 33.9031 20.7967 33.9031H20.9629C20.9629 33.9031 21.1082 33.8823 21.129 33.8823Z" fill="#F4F4F4"/>
<path d="M23.621 29.0851H22.645V28.2129H23.621V29.0851ZM23.5795 34.609H22.6865C22.6865 34.526 22.6865 34.2352 22.7073 33.6953C22.7073 33.1554 22.7073 32.6985 22.7073 32.3247C22.7073 31.9924 22.7073 31.6394 22.7073 31.2656C22.7073 30.8918 22.7073 30.4349 22.6865 29.9365H23.5795C23.5795 30.3726 23.5587 30.788 23.5587 31.1618V32.2209C23.5587 32.9269 23.5587 33.4876 23.5795 33.903V34.609Z" fill="#F4F4F4"/>
<path d="M29.3319 32.1379H26.0507C26.0507 32.4494 26.113 32.7194 26.2584 32.9686C26.383 33.2178 26.5907 33.4254 26.8814 33.5916C27.0683 33.6954 27.2552 33.7785 27.4836 33.82C27.7121 33.8823 27.9613 33.9031 28.2728 33.9031C28.4597 33.9031 28.6258 33.9031 28.7712 33.8823C28.9165 33.8823 28.9996 33.8615 29.0411 33.8615L28.9373 34.5676C28.8958 34.5676 28.8127 34.5676 28.6673 34.5884C28.522 34.5884 28.3558 34.6091 28.1689 34.6091C27.6705 34.6091 27.2344 34.5468 26.8399 34.4222C26.4661 34.2976 26.1546 34.1315 25.9054 33.9031C25.6977 33.7162 25.5108 33.467 25.3654 33.1762C25.2201 32.8855 25.1578 32.5532 25.1578 32.2002C25.1578 31.8471 25.2201 31.5356 25.3239 31.2449C25.4277 30.9542 25.5939 30.705 25.8015 30.4558C25.9884 30.2481 26.2169 30.082 26.5076 29.9781C26.7776 29.8743 27.0683 29.812 27.359 29.812C27.6498 29.812 27.9197 29.8535 28.1482 29.9366C28.3766 30.0197 28.5843 30.165 28.7504 30.3312C28.9373 30.5388 29.0827 30.788 29.1865 31.0788C29.2903 31.3695 29.3319 31.7433 29.3319 32.1379ZM28.4597 31.5979C28.4181 31.2449 28.2935 30.9542 28.1066 30.7465C27.9197 30.5388 27.6498 30.435 27.3175 30.435C26.9852 30.435 26.7153 30.5388 26.5076 30.7465C26.2999 30.9542 26.1546 31.2449 26.0715 31.5979H28.4597Z" fill="#F4F4F4"/>
<path d="M33.7345 30.6011C33.5476 30.6634 33.2776 30.7465 32.9453 30.8711C32.6131 30.9957 32.1977 31.1618 31.7409 31.3903V31.8471V32.574C31.7409 32.927 31.7409 33.3423 31.7616 33.82C31.7616 34.2976 31.7824 34.5676 31.7824 34.6299H30.8894C30.8894 34.5676 30.8894 34.3807 30.8894 34.0692C30.8894 33.7577 30.8894 33.2593 30.8894 32.574C30.8894 32.2832 30.8894 31.8887 30.8894 31.411C30.8894 30.9126 30.8894 30.435 30.8687 29.9781H31.7409V30.6634C32.0731 30.4765 32.4054 30.2896 32.7377 30.1443C33.0699 29.9989 33.3399 29.8951 33.5476 29.8328L33.7345 30.6011Z" fill="#F4F4F4"/>
<path d="M38.6354 29.895V30.788V32.2832V33.28V34.2768C38.6354 34.796 38.5523 35.2113 38.3654 35.5021C38.1785 35.7928 37.9293 36.042 37.5763 36.2289C37.2855 36.3743 36.9325 36.4989 36.5172 36.5612C36.1018 36.6442 35.645 36.6858 35.1258 36.665L35.0427 35.9589C35.3958 35.9589 35.728 35.9382 36.0188 35.8966C36.3095 35.8551 36.5795 35.8136 36.8079 35.7305C37.1609 35.6059 37.3894 35.4398 37.5347 35.2321C37.6801 35.0244 37.7424 34.7752 37.7424 34.4845C37.7009 34.4845 37.6801 34.4845 37.6386 34.4845C37.597 34.4845 37.5763 34.4845 37.5347 34.4845C37.1817 34.4845 36.8079 34.443 36.4341 34.3599C36.0603 34.2768 35.728 34.1315 35.4581 33.9653C35.1673 33.7784 34.9597 33.5292 34.7728 33.2385C34.5859 32.9478 34.5236 32.574 34.5236 32.1586C34.5236 31.7225 34.6482 31.3487 34.8766 31.0164C35.105 30.6842 35.4373 30.435 35.8526 30.2273C36.1434 30.1027 36.4549 29.9989 36.7871 29.9366C37.1402 29.8743 37.5555 29.8535 38.0331 29.8535H38.3239C38.4277 29.895 38.5315 29.895 38.6354 29.895ZM37.7632 32.3248C37.7632 32.1171 37.7632 31.8679 37.7632 31.5564C37.7632 31.2449 37.7632 30.9334 37.7424 30.6011C37.7216 30.6011 37.7009 30.6011 37.6801 30.6011C37.6593 30.6011 37.6386 30.6011 37.6178 30.6011C37.3478 30.6011 37.1194 30.6219 36.9325 30.6426C36.7248 30.6842 36.5172 30.7465 36.3095 30.8295C36.0188 30.9542 35.7903 31.141 35.645 31.3903C35.4996 31.6395 35.4165 31.9094 35.4165 32.2209C35.4165 32.5324 35.4996 32.8024 35.645 33.0308C35.7903 33.2593 35.998 33.4254 36.268 33.55C36.4549 33.6331 36.6418 33.6954 36.8702 33.7577C37.0986 33.82 37.3478 33.8407 37.597 33.8407H37.6801H37.7424C37.7424 33.7992 37.7424 33.6331 37.7424 33.3423C37.7424 33.0516 37.7632 32.7193 37.7632 32.3248Z" fill="#F4F4F4"/>
<path d="M44.3462 32.1379H41.0651C41.0651 32.4494 41.1274 32.7194 41.2728 32.9686C41.3974 33.2178 41.605 33.4254 41.8958 33.5916C42.0827 33.6954 42.2696 33.7785 42.498 33.82C42.7264 33.8823 42.9756 33.9031 43.2871 33.9031C43.474 33.9031 43.6402 33.9031 43.7855 33.8823C43.9309 33.8823 44.014 33.8615 44.0555 33.8615L43.9517 34.5676C43.9101 34.5676 43.8271 34.5676 43.6817 34.5884C43.5363 34.5884 43.3702 34.6091 43.1833 34.6091C42.6849 34.6091 42.2488 34.5468 41.8542 34.4222C41.4804 34.2976 41.1689 34.1315 40.9197 33.9031C40.712 33.7162 40.5252 33.467 40.3798 33.1762C40.2344 32.8855 40.1721 32.5532 40.1721 32.2002C40.1721 31.8471 40.2344 31.5356 40.3383 31.2449C40.4421 30.9542 40.6082 30.705 40.8159 30.4558C41.0028 30.2481 41.2312 30.082 41.522 29.9781C41.7919 29.8743 42.0827 29.812 42.3734 29.812C42.6641 29.812 42.9341 29.8535 43.1625 29.9366C43.391 30.0197 43.5986 30.165 43.7648 30.3312C43.9517 30.5388 44.097 30.788 44.2009 31.0788C44.3047 31.3695 44.3255 31.7433 44.3462 32.1379ZM43.474 31.5979C43.4325 31.2449 43.3079 30.9542 43.121 30.7465C42.9341 30.5388 42.6641 30.435 42.3319 30.435C41.9996 30.435 41.7296 30.5388 41.522 30.7465C41.3143 30.9542 41.1689 31.2449 41.0859 31.5979H43.474Z" fill="#F4F4F4"/>
<path d="M54.5842 34.1106L54.0858 34.7336L52.5906 33.5914C52.196 34.0067 51.843 34.2975 51.4899 34.4844C51.1369 34.6713 50.7839 34.7543 50.3893 34.7543C49.7871 34.7543 49.2887 34.5882 48.8941 34.2767C48.5203 33.9444 48.3126 33.5291 48.3126 33.0307C48.3126 32.6777 48.4165 32.3246 48.6449 32.0131C48.8526 31.7016 49.1225 31.4109 49.434 31.1825V31.1617C49.2056 30.9748 49.0394 30.7879 48.9148 30.5595C48.7902 30.3518 48.728 30.1026 48.728 29.8534C48.728 29.4173 48.9149 29.0435 49.3094 28.732C49.704 28.4413 50.1401 28.2959 50.6593 28.2959C51.22 28.2959 51.6768 28.4413 52.0091 28.7112C52.3621 29.002 52.5283 29.3758 52.5283 29.8326C52.5283 30.1649 52.4244 30.4764 52.2375 30.7671C52.0506 31.0579 51.7599 31.3901 51.3446 31.7224V31.7432C51.5315 31.8885 51.7391 32.0547 51.9676 32.2416C52.196 32.4285 52.3621 32.5531 52.4452 32.6154C52.7567 32.2 53.0474 31.7847 53.2966 31.3486C53.5666 30.9333 53.6912 30.6841 53.7327 30.6633L54.418 31.1202C54.3765 31.2032 54.1896 31.4524 53.8781 31.9093C53.5666 32.3662 53.2966 32.7192 53.0474 33.0099L54.5842 34.1106ZM52.0091 33.1761C51.7599 32.9684 51.4484 32.74 51.0954 32.4492C50.7423 32.1585 50.3685 31.8678 49.974 31.5563C49.6832 31.847 49.4756 32.0962 49.3925 32.3039C49.3094 32.5115 49.2471 32.74 49.2471 32.9684C49.2471 33.3007 49.3717 33.5499 49.5794 33.7368C49.8078 33.9237 50.0778 34.0275 50.4101 34.0275C50.7423 34.0275 51.0331 33.9444 51.2823 33.7991C51.5522 33.6537 51.8014 33.446 52.0091 33.1761ZM51.6768 29.9365C51.6768 29.6457 51.5938 29.3965 51.4069 29.2304C51.22 29.0435 50.9708 28.9604 50.6593 28.9604C50.3685 28.9604 50.1193 29.0435 49.9324 29.2096C49.7248 29.3758 49.6417 29.6042 49.6417 29.8742C49.6417 30.1026 49.7455 30.3103 49.9532 30.5387C50.1609 30.7671 50.4724 31.0371 50.8877 31.3486C51.1784 31.0994 51.3861 30.8502 51.5107 30.6218C51.6353 30.3933 51.6768 30.1649 51.6768 29.9365Z" fill="#F4F4F4"/>
<path d="M62.1225 32.8439C62.1225 33.1554 62.0394 33.4461 61.894 33.6953C61.7279 33.9445 61.5202 34.1314 61.271 34.2768C61.0218 34.4221 60.7519 34.526 60.4196 34.5883C60.0873 34.6506 59.7551 34.6921 59.3813 34.6921C59.1736 34.6921 58.9452 34.6921 58.7375 34.6713C58.5298 34.6506 58.3845 34.6506 58.3429 34.6506L58.2806 33.8407C58.3222 33.8407 58.4468 33.8614 58.6544 33.8822C58.8621 33.903 59.0905 33.903 59.3397 33.903C59.5059 33.903 59.6928 33.8822 59.942 33.8407C60.1912 33.7991 60.3781 33.7576 60.5234 33.6953C60.7103 33.6122 60.8349 33.5084 60.9388 33.4046C61.0218 33.28 61.0841 33.1346 61.0841 32.9685C61.0841 32.7816 61.0426 32.6154 60.9388 32.4908C60.8349 32.3662 60.6896 32.2209 60.4611 32.0963C60.3158 32.0132 60.1289 31.9301 59.9004 31.8263C59.672 31.7225 59.4643 31.6186 59.2982 31.494C58.9867 31.3071 58.7583 31.0995 58.6337 30.871C58.5091 30.6426 58.426 30.3934 58.426 30.1234C58.426 29.8534 58.4883 29.625 58.5921 29.4173C58.7167 29.2097 58.8621 29.0435 59.049 28.8982C59.2567 28.732 59.5266 28.6074 59.8381 28.5244C60.1496 28.4413 60.5234 28.3998 60.918 28.3998C61.1257 28.3998 61.3333 28.3998 61.5202 28.4205C61.7071 28.4413 61.8317 28.4413 61.8525 28.4413L61.9356 29.2512C61.894 29.2512 61.7902 29.2304 61.6033 29.2304C61.4164 29.2097 61.188 29.2097 60.8972 29.2097C60.7311 29.2097 60.5442 29.2304 60.3781 29.2512C60.2119 29.2927 60.0458 29.3343 59.9004 29.4173C59.7758 29.4796 59.672 29.5627 59.5889 29.6873C59.5059 29.8119 59.4643 29.9365 59.4643 30.1026C59.4643 30.248 59.5059 30.3726 59.6097 30.518C59.6928 30.6426 59.8589 30.7879 60.1081 30.9125C60.2327 30.9956 60.3988 31.0787 60.6065 31.1617C60.8142 31.2656 61.0011 31.3694 61.2087 31.4732C61.4995 31.6602 61.7279 31.8678 61.894 32.0963C62.0394 32.2832 62.1225 32.5531 62.1225 32.8439Z" fill="#F4F4F4"/>
<path d="M67.5841 32.1379H64.303C64.303 32.4494 64.3653 32.7194 64.5107 32.9686C64.6353 33.2178 64.8429 33.4254 65.1337 33.5916C65.3206 33.6954 65.5075 33.7785 65.7359 33.82C65.9643 33.8823 66.2135 33.9031 66.525 33.9031C66.7119 33.9031 66.8781 33.9031 67.0234 33.8823C67.1688 33.8823 67.2519 33.8615 67.2934 33.8615L67.1896 34.5676C67.148 34.5676 67.065 34.5676 66.9196 34.5884C66.7742 34.5884 66.6081 34.6091 66.4212 34.6091C65.9228 34.6091 65.4867 34.5468 65.0921 34.4222C64.7183 34.2976 64.4068 34.1315 64.1576 33.9031C63.95 33.7162 63.7631 33.467 63.6177 33.1762C63.4723 32.8855 63.41 32.5532 63.41 32.2002C63.41 31.8471 63.4723 31.5356 63.5762 31.2449C63.68 30.9542 63.8461 30.705 64.0538 30.4558C64.2407 30.2481 64.4691 30.082 64.7599 29.9781C65.0298 29.8743 65.3206 29.812 65.6113 29.812C65.902 29.812 66.172 29.8535 66.4004 29.9366C66.6289 30.0197 66.8365 30.165 67.0027 30.3312C67.1896 30.5388 67.3349 30.788 67.4388 31.0788C67.5426 31.3695 67.5841 31.7433 67.5841 32.1379ZM66.7119 31.5979C66.6704 31.2449 66.5458 30.9542 66.3589 30.7465C66.172 30.5388 65.902 30.435 65.5698 30.435C65.2375 30.435 64.9675 30.5388 64.7599 30.7465C64.5522 30.9542 64.4068 31.2449 64.3238 31.5979H66.7119Z" fill="#F4F4F4"/>
<path d="M71.9867 30.6011C71.7998 30.6634 71.5298 30.7465 71.1975 30.8711C70.8653 30.9957 70.4499 31.1618 69.993 31.3903V31.8471V32.574C69.993 32.927 69.993 33.3423 70.0138 33.82C70.0138 34.2976 70.0346 34.5676 70.0346 34.6299H69.1416C69.1416 34.5676 69.1416 34.3807 69.1416 34.0692C69.1416 33.7577 69.1416 33.2593 69.1416 32.574C69.1416 32.2832 69.1416 31.8887 69.1416 31.411C69.1416 30.9126 69.1416 30.435 69.1208 29.9781H69.993V30.6634C70.3253 30.4765 70.6576 30.2896 70.9899 30.1443C71.3221 29.9989 71.5921 29.8951 71.7997 29.8328L71.9867 30.6011Z" fill="#F4F4F4"/>
<path d="M77.2615 30.1443C76.8461 31.0788 76.4308 32.034 76.0155 33.0101C75.5794 33.9861 75.3509 34.526 75.3302 34.6091H74.5826C74.541 34.526 74.3126 34.0069 73.918 33.0724C73.5027 32.1379 73.0666 31.1826 72.6305 30.165L73.4819 29.8328L74.9979 33.4877H75.0187L76.4723 29.8535L77.2615 30.1443Z" fill="#F4F4F4"/>
<path d="M79.6289 29.0851H78.6528V28.2129H79.6289V29.0851ZM79.5873 34.609H78.6944C78.6944 34.526 78.6944 34.2352 78.7151 33.6953C78.7151 33.1554 78.7151 32.6985 78.7151 32.3247C78.7151 31.9924 78.7151 31.6394 78.7151 31.2656C78.7151 30.8918 78.7151 30.4349 78.6944 29.9365H79.5873C79.5873 30.3726 79.5666 30.788 79.5666 31.1618V32.2209C79.5666 32.9269 79.5666 33.4876 79.5873 33.903V34.609Z" fill="#F4F4F4"/>
<path d="M84.779 33.8823L84.6959 34.6299C84.6751 34.6299 84.6336 34.6299 84.5713 34.6299C84.509 34.6299 84.4675 34.6299 84.4259 34.6299C83.9898 34.6299 83.5953 34.5884 83.2422 34.5053C82.8892 34.4223 82.5777 34.2977 82.287 34.1523C81.9132 33.9446 81.6432 33.6747 81.4355 33.3632C81.2279 33.0309 81.124 32.6571 81.124 32.2625C81.124 31.8887 81.2278 31.5564 81.4147 31.2449C81.6016 30.9334 81.8509 30.6842 82.1624 30.4973C82.4531 30.3104 82.7854 30.1651 83.1799 30.082C83.5745 29.9782 83.9898 29.9366 84.4259 29.9366H84.5298C84.5298 29.9366 84.5921 29.9366 84.6128 29.9366L84.6751 30.6842C84.6544 30.6842 84.6336 30.6842 84.5921 30.6842C84.5505 30.6842 84.5298 30.6842 84.509 30.6842C84.1975 30.6842 83.9275 30.705 83.6783 30.7465C83.4499 30.7881 83.2215 30.8504 82.993 30.9334C82.7023 31.0373 82.4531 31.2242 82.287 31.4734C82.1208 31.7226 82.017 31.9925 82.017 32.2625C82.017 32.5948 82.1001 32.8855 82.2662 33.114C82.4323 33.3424 82.64 33.5085 82.9307 33.6331C83.1384 33.737 83.3668 33.7993 83.6368 33.8408C83.9068 33.8823 84.1767 33.9031 84.4467 33.9031H84.6128C84.6128 33.9031 84.7582 33.8823 84.779 33.8823Z" fill="#F4F4F4"/>
<path d="M90.033 32.1379H86.7519C86.7519 32.4494 86.8142 32.7194 86.9595 32.9686C87.0841 33.2178 87.2918 33.4254 87.5825 33.5916C87.7694 33.6954 87.9563 33.7785 88.1848 33.82C88.4132 33.8823 88.6624 33.9031 88.9739 33.9031C89.1608 33.9031 89.3269 33.9031 89.4723 33.8823C89.6177 33.8823 89.7007 33.8615 89.7423 33.8615L89.6384 34.5676C89.5969 34.5676 89.5138 34.5676 89.3685 34.5884C89.2231 34.5884 89.057 34.6091 88.8701 34.6091C88.3717 34.6091 87.9356 34.5468 87.541 34.4222C87.1672 34.2976 86.8557 34.1315 86.6065 33.9031C86.3988 33.7162 86.2119 33.467 86.0666 33.1762C85.9212 32.8855 85.8589 32.5532 85.8589 32.2002C85.8589 31.8471 85.9212 31.5356 86.025 31.2449C86.1289 30.9542 86.295 30.705 86.5026 30.4558C86.6895 30.2481 86.918 30.082 87.2087 29.9781C87.4787 29.8743 87.7694 29.812 88.0602 29.812C88.3509 29.812 88.6209 29.8535 88.8493 29.9366C89.0777 30.0197 89.2854 30.165 89.4515 30.3312C89.6384 30.5388 89.7838 30.788 89.8876 31.0788C89.9707 31.3903 90.033 31.7433 90.033 32.1379ZM89.1608 31.5979C89.1193 31.2449 88.9947 30.9542 88.8078 30.7465C88.6209 30.5388 88.3509 30.435 88.0186 30.435C87.6864 30.435 87.4164 30.5388 87.2087 30.7465C87.0011 30.9542 86.8557 31.2449 86.7726 31.5979H89.1608Z" fill="#F4F4F4"/>
<path d="M14.1929 0.510132V2.3376H2.87508V9.87596H12.5939V11.7034H2.87508V22.4606H0.00927734V0.510132H14.1929Z" fill="#F4F4F4"/>
<path d="M23.6418 0.510132V22.4606H20.7968V0.510132H23.6418Z" fill="#F4F4F4"/>
<path d="M34.212 12.7625H35.6033C36.1848 12.7625 36.6832 12.8248 37.057 12.9287C37.4516 13.0325 37.8046 13.2194 38.1161 13.4686C38.4276 13.7178 38.7184 14.0501 38.9883 14.4446C39.2583 14.8392 39.5906 15.3376 39.9644 15.9191L42.4564 19.5948C42.7679 20.0724 43.0794 20.5085 43.3701 20.9031C43.6608 21.2976 43.9931 21.6299 44.3461 21.9206C44.6992 22.2114 45.0937 22.419 45.5506 22.5852C46.0075 22.7513 46.5266 22.8344 47.1704 22.8344C47.6273 22.8344 48.0011 22.8136 48.2918 22.7721C48.5825 22.7305 48.8733 22.6267 49.164 22.4606V21.2976C49.0602 21.3184 48.9563 21.3392 48.8525 21.3392C48.7487 21.3599 48.6448 21.3599 48.541 21.3599C48.1049 21.3599 47.7103 21.2976 47.3781 21.173C47.0458 21.0484 46.7343 20.8615 46.4436 20.6331C46.1528 20.3839 45.8621 20.0932 45.5921 19.7609C45.3222 19.4079 45.0314 19.0341 44.7615 18.5772C43.8893 17.3104 43.2247 16.2929 42.7471 15.5245C42.2695 14.7561 41.8957 14.1747 41.6049 13.7593C41.3142 13.344 41.0858 13.0325 40.9196 12.8456C40.7327 12.6587 40.5251 12.4926 40.2759 12.368L39.9644 12.2018V12.0772C40.9612 12.0149 41.8334 11.7865 42.5394 11.4127C43.2663 11.0389 43.8477 10.5613 44.3046 10.0006C44.7615 9.43986 45.0937 8.81685 45.3014 8.17309C45.5091 7.50855 45.6129 6.86479 45.6129 6.24178C45.6129 5.68108 45.5091 5.05808 45.2806 4.39351C45.0522 3.72897 44.6784 3.10597 44.1592 2.5245C43.6193 1.94304 42.8925 1.4654 41.9787 1.0916C41.065 0.697033 39.9021 0.510132 38.4899 0.510132H31.3669V22.4606H34.212V12.7625ZM34.212 1.88074H37.3893C38.1784 1.88074 38.9053 2.00533 39.549 2.23377C40.1928 2.4622 40.7327 2.7737 41.2104 3.18904C41.6672 3.60437 42.0203 4.082 42.2695 4.64271C42.5187 5.20345 42.6225 5.82645 42.6225 6.49098C42.6225 7.05168 42.5187 7.63315 42.2902 8.19385C42.0618 8.77532 41.7295 9.29449 41.2934 9.75136C40.8573 10.229 40.3174 10.6028 39.6736 10.8935C39.0299 11.1843 38.303 11.3296 37.4516 11.3296H34.212V1.88074Z" fill="#F4F4F4"/>
<path d="M53.9819 16.9159C54.0027 17.1859 54.0858 17.6012 54.2311 18.0996C54.3765 18.6188 54.6672 19.1172 55.0826 19.5948C55.4979 20.0724 56.1001 20.4878 56.91 20.8408C57.6992 21.1938 58.7583 21.36 60.0874 21.36C61.7487 21.36 63.057 21.0485 64.0538 20.4255C65.0506 19.8025 65.549 18.8057 65.549 17.4351C65.549 16.3552 65.2375 15.5868 64.6145 14.943C63.9915 14.2993 63.2024 13.7386 62.2471 13.3025C61.2918 12.8456 60.2743 12.451 59.1529 12.098C58.0522 11.745 57.0139 11.3089 56.0586 10.8105C55.1033 10.3121 54.3142 9.68907 53.6912 8.9207C53.0682 8.1731 52.7567 7.1763 52.7567 5.9303C52.7567 4.99578 52.9436 4.14434 53.3382 3.41751C53.7327 2.69067 54.2519 2.08844 54.9164 1.59004C55.581 1.1124 56.3493 0.738601 57.2008 0.4894C58.073 0.2402 58.9867 0.115601 59.942 0.115601C60.8557 0.115601 61.7487 0.219434 62.6001 0.447868C63.4516 0.676301 64.1992 0.987801 64.8845 1.4239C65.549 1.86 66.1097 2.37917 66.5458 3.00217C66.9819 3.62517 67.2726 4.31047 67.3972 5.07886H65.2583C65.0921 3.85361 64.5314 3.0437 63.5762 2.483C62.6209 1.90154 61.458 1.6108 60.1081 1.6108C59.2982 1.6108 58.5714 1.71464 57.9484 1.90154C57.3254 2.1092 56.7854 2.3584 56.3701 2.69067C55.934 3.02294 55.6225 3.39674 55.3941 3.83284C55.1656 4.26894 55.0618 4.74657 55.0618 5.245C55.0618 6.13796 55.3941 6.76097 56.0379 7.3009C56.6816 7.84083 57.4915 8.31847 58.4675 8.75457C59.4436 9.1699 60.5027 9.56447 61.6449 9.93827C62.787 10.3121 63.8461 10.7897 64.8222 11.3296C65.7982 11.8903 66.6081 12.5756 67.2519 13.4063C67.8956 14.237 68.2279 15.2961 68.2279 16.5836C68.2279 17.5181 68.041 18.3903 67.6672 19.1587C67.2934 19.9271 66.7535 20.5916 66.0682 21.1315C65.3829 21.6715 64.5522 22.0868 63.5762 22.3775C62.6001 22.6683 61.4995 22.8136 60.295 22.8136C59.0906 22.8136 57.9899 22.6683 56.9931 22.3983C55.9963 22.1076 55.1034 21.713 54.3765 21.2146C53.6289 20.6954 53.0474 20.0724 52.6113 19.3456C52.1752 18.6188 51.9468 17.7881 51.9053 16.8951H53.9819V16.9159Z" fill="#F4F4F4"/>
<path d="M78.7774 22.4606V2.3376H70.3669V0.510132H90.0329V2.3376H81.6224V22.4606H78.7774Z" fill="#F4F4F4"/>
</svg>
